<svg width="1728" height="519" viewBox="0 0 1728 519" fill="none" xmlns="http://www.w3.org/2000/svg">
<path d="M1633.77 515.1L1595.77 493.363C1593.75 492.205 1592.5 490.052 1592.5 487.72L1592.5 444.374C1592.5 442.042 1593.75 439.889 1595.77 438.732L1633.77 416.994C1635.77 415.851 1638.23 415.851 1640.23 416.994L1678.23 438.732C1680.25 439.889 1681.5 442.042 1681.5 444.374L1681.5 487.72C1681.5 490.052 1680.25 492.205 1678.23 493.363L1640.23 515.1C1638.23 516.244 1635.77 516.244 1633.77 515.1Z" stroke="#2C3144" stroke-width="3"/>
<path d="M1588.77 439.143L1550.77 417.406C1548.75 416.248 1547.5 414.096 1547.5 411.764L1547.5 368.417C1547.5 366.086 1548.75 363.933 1550.77 362.775L1588.77 341.038C1590.77 339.894 1593.23 339.894 1595.23 341.038L1633.23 362.775C1635.25 363.933 1636.5 366.086 1636.5 368.417L1636.5 411.764C1636.5 414.096 1635.25 416.248 1633.23 417.406L1595.23 439.143C1593.23 440.287 1590.77 440.287 1588.77 439.143Z" stroke="#2C3144" stroke-width="3"/>
<path d="M1589.77 287.23L1551.77 265.493C1549.75 264.336 1548.5 262.183 1548.5 259.851L1548.5 216.504C1548.5 214.173 1549.75 212.02 1551.77 210.862L1589.77 189.125C1591.77 187.981 1594.23 187.981 1596.23 189.125L1634.23 210.862C1636.25 212.02 1637.5 214.173 1637.5 216.504L1637.5 259.851C1637.5 262.183 1636.25 264.336 1634.23 265.493L1596.23 287.23C1594.23 288.374 1591.77 288.374 1589.77 287.23Z" stroke="#2C3144" stroke-width="3"/>
<path d="M1499.77 439.143L1461.77 417.406C1459.75 416.248 1458.5 414.096 1458.5 411.764L1458.5 368.417C1458.5 366.086 1459.75 363.933 1461.77 362.775L1499.77 341.038C1501.77 339.894 1504.23 339.894 1506.23 341.038L1544.23 362.775C1546.25 363.933 1547.5 366.086 1547.5 368.417L1547.5 411.764C1547.5 414.096 1546.25 416.248 1544.23 417.406L1506.23 439.143C1504.23 440.287 1501.77 440.287 1499.77 439.143Z" stroke="#2C3144" stroke-width="3"/>
<path d="M1455.77 363.187L1417.77 341.45C1415.75 340.292 1414.5 338.139 1414.5 335.808L1414.5 292.461C1414.5 290.129 1415.75 287.976 1417.77 286.819L1455.77 265.082C1457.77 263.938 1460.23 263.938 1462.23 265.082L1500.23 286.819C1502.25 287.976 1503.5 290.129 1503.5 292.461L1503.5 335.808C1503.5 338.139 1502.25 340.292 1500.23 341.45L1462.23 363.187C1460.23 364.331 1457.77 364.331 1455.77 363.187Z" stroke="#2C3144" stroke-width="3"/>
<path d="M1678.77 287.23L1640.77 265.493C1638.75 264.336 1637.5 262.183 1637.5 259.851L1637.5 216.504C1637.5 214.173 1638.75 212.02 1640.77 210.862L1678.77 189.125C1680.77 187.981 1683.23 187.981 1685.23 189.125L1723.23 210.862C1725.25 212.02 1726.5 214.173 1726.5 216.504L1726.5 259.851C1726.5 262.183 1725.25 264.336 1723.23 265.493L1685.23 287.23C1683.23 288.374 1680.77 288.374 1678.77 287.23Z" stroke="#2C3144" stroke-width="3"/>
<path d="M1678.77 439.143L1640.77 417.406C1638.75 416.248 1637.5 414.096 1637.5 411.764L1637.5 368.417C1637.5 366.086 1638.75 363.933 1640.77 362.775L1678.77 341.038C1680.77 339.894 1683.23 339.894 1685.23 341.038L1723.23 362.775C1725.25 363.933 1726.5 366.086 1726.5 368.417L1726.5 411.764C1726.5 414.096 1725.25 416.248 1723.23 417.406L1685.23 439.143C1683.23 440.287 1680.77 440.287 1678.77 439.143Z" stroke="#2C3144" stroke-width="3"/>
<path d="M1544.77 363.187L1506.77 341.45C1504.75 340.292 1503.5 338.139 1503.5 335.808L1503.5 292.461C1503.5 290.129 1504.75 287.976 1506.77 286.819L1544.77 265.082C1546.77 263.938 1549.23 263.938 1551.23 265.082L1589.23 286.819C1591.25 287.976 1592.5 290.129 1592.5 292.461L1592.5 335.808C1592.5 338.139 1591.25 340.292 1589.23 341.45L1551.23 363.187C1549.23 364.331 1546.77 364.331 1544.77 363.187Z" fill="white" stroke="#F17900" stroke-width="3"/>
<path d="M1633.77 363.187L1595.77 341.45C1593.75 340.292 1592.5 338.139 1592.5 335.808L1592.5 292.461C1592.5 290.129 1593.75 287.976 1595.77 286.819L1633.77 265.082C1635.77 263.938 1638.23 263.938 1640.23 265.082L1678.23 286.819C1680.25 287.976 1681.5 290.129 1681.5 292.461L1681.5 335.808C1681.5 338.139 1680.25 340.292 1678.23 341.45L1640.23 363.187C1638.23 364.331 1635.77 364.331 1633.77 363.187Z" stroke="#2C3144" stroke-width="3"/>
<path d="M175.773 101.68L137.773 79.9424C135.749 78.7847 134.501 76.6318 134.501 74.3003L134.501 30.9536C134.501 28.6221 135.749 26.4692 137.773 25.3115L175.773 3.5743C177.773 2.43045 180.229 2.43045 182.228 3.5743L220.228 25.3115C222.252 26.4692 223.501 28.6221 223.501 30.9536L223.501 74.3003C223.501 76.6318 222.252 78.7848 220.228 79.9424L182.228 101.68C180.229 102.824 177.773 102.824 175.773 101.68Z" stroke="#2C3144" stroke-width="3"/>
<path d="M85.7726 101.68L47.7726 79.9424C45.7488 78.7847 44.5001 76.6318 44.5001 74.3003L44.5001 30.9536C44.5001 28.6221 45.7488 26.4692 47.7726 25.3115L85.7726 3.5743C87.7722 2.43045 90.2279 2.43045 92.2275 3.5743L130.228 25.3115C132.251 26.4692 133.5 28.6221 133.5 30.9536L133.5 74.3003C133.5 76.6318 132.251 78.7848 130.228 79.9424L92.2275 101.68C90.2279 102.824 87.7722 102.824 85.7726 101.68Z" stroke="#2C3144" stroke-width="3"/>
<path d="M42.7725 177.636L4.77252 155.899C2.74873 154.741 1.49999 152.588 1.5 150.257L1.5 106.91C1.5 104.579 2.74874 102.426 4.77253 101.268L42.7725 79.5308C44.7722 78.3869 47.2279 78.3869 49.2275 79.5308L87.2275 101.268C89.2513 102.426 90.5 104.579 90.5 106.91L90.5 150.257C90.5 152.588 89.2513 154.741 87.2275 155.899L49.2275 177.636C47.2278 178.78 44.7722 178.78 42.7725 177.636Z" stroke="#2C3144" stroke-width="3"/>
<path d="M175.773 253.593L137.773 231.855C135.749 230.698 134.501 228.545 134.501 226.213L134.501 182.867C134.501 180.535 135.749 178.382 137.773 177.224L175.773 155.487C177.773 154.343 180.228 154.343 182.228 155.487L220.228 177.224C222.252 178.382 223.501 180.535 223.501 182.867L223.501 226.213C223.501 228.545 222.252 230.698 220.228 231.855L182.228 253.593C180.228 254.736 177.773 254.736 175.773 253.593Z" stroke="#2C3144" stroke-width="3"/>
<path d="M131.773 329.549L93.7728 307.812C91.749 306.654 90.5002 304.501 90.5002 302.17L90.5002 258.823C90.5002 256.492 91.749 254.339 93.7728 253.181L131.773 231.444C133.772 230.3 136.228 230.3 138.228 231.444L176.228 253.181C178.252 254.339 179.5 256.492 179.5 258.823L179.5 302.17C179.5 304.501 178.252 306.654 176.228 307.812L138.228 329.549C136.228 330.693 133.772 330.693 131.773 329.549Z" stroke="#2C3144" stroke-width="3"/>
<path d="M131.773 177.636L93.7728 155.899C91.749 154.741 90.5002 152.588 90.5002 150.257L90.5002 106.91C90.5002 104.579 91.749 102.426 93.7728 101.268L131.773 79.5308C133.772 78.3869 136.228 78.3869 138.228 79.5308L176.228 101.268C178.252 102.426 179.5 104.579 179.5 106.91L179.5 150.257C179.5 152.588 178.252 154.741 176.228 155.899L138.228 177.636C136.228 178.78 133.772 178.78 131.773 177.636Z" stroke="#F17900" stroke-width="3"/>
</svg>
