<svg width="313" height="48" viewBox="0 0 313 48" fill="none" xmlns="http://www.w3.org/2000/svg">
<rect width="313" height="48" rx="24" fill="#F17900"/>
<path d="M57.1425 20.794V19.2727H64.3102V20.794H61.6383V28H59.8144V20.794H57.1425ZM64.9768 30.4545V21.4545H66.7666V22.554H66.8475C66.9271 22.3778 67.0421 22.1989 67.1927 22.017C67.3461 21.8324 67.545 21.679 67.7893 21.5568C68.0364 21.4318 68.3433 21.3693 68.7097 21.3693C69.187 21.3693 69.6273 21.4943 70.0308 21.7443C70.4342 21.9915 70.7566 22.3651 70.9981 22.8651C71.2396 23.3622 71.3603 23.9858 71.3603 24.7358C71.3603 25.4659 71.2424 26.0824 71.0066 26.5852C70.7737 27.0852 70.4555 27.4645 70.0521 27.723C69.6515 27.9787 69.2026 28.1065 68.7055 28.1065C68.3532 28.1065 68.0535 28.0483 67.8063 27.9318C67.562 27.8153 67.3617 27.669 67.2055 27.4929C67.0492 27.3139 66.9299 27.1335 66.8475 26.9517H66.7921V30.4545H64.9768ZM66.7538 24.7273C66.7538 25.1165 66.8077 25.456 66.9157 25.7457C67.0237 26.0355 67.1799 26.2614 67.3844 26.4233C67.589 26.5824 67.8376 26.6619 68.1302 26.6619C68.4256 26.6619 68.6756 26.581 68.8802 26.419C69.0847 26.2543 69.2396 26.027 69.3447 25.7372C69.4526 25.4446 69.5066 25.108 69.5066 24.7273C69.5066 24.3494 69.4541 24.017 69.3489 23.7301C69.2438 23.4432 69.089 23.2187 68.8844 23.0568C68.6799 22.8949 68.4285 22.8139 68.1302 22.8139C67.8347 22.8139 67.5847 22.892 67.3802 23.0483C67.1785 23.2045 67.0237 23.4261 66.9157 23.7131C66.8077 24 66.7538 24.3381 66.7538 24.7273ZM75.7535 28.1278C75.0802 28.1278 74.5006 27.9915 74.0148 27.7188C73.5319 27.4432 73.1597 27.054 72.8984 26.5511C72.637 26.0455 72.5063 25.4474 72.5063 24.7571C72.5063 24.0838 72.637 23.4929 72.8984 22.9844C73.1597 22.4759 73.5276 22.0795 74.0021 21.7955C74.4793 21.5114 75.039 21.3693 75.681 21.3693C76.1129 21.3693 76.5148 21.4389 76.887 21.5781C77.262 21.7145 77.5887 21.9205 77.8671 22.196C78.1484 22.4716 78.3671 22.8182 78.5234 23.2358C78.6796 23.6506 78.7577 24.1364 78.7577 24.6932V25.1918H73.2308V24.0668H77.0489C77.0489 23.8054 76.9921 23.5739 76.8785 23.3722C76.7648 23.1705 76.6072 23.0128 76.4055 22.8991C76.2066 22.7827 75.9751 22.7244 75.7109 22.7244C75.4353 22.7244 75.191 22.7884 74.9779 22.9162C74.7677 23.0412 74.6029 23.2102 74.4836 23.4233C74.3643 23.6335 74.3032 23.8679 74.3004 24.1264V25.196C74.3004 25.5199 74.36 25.7997 74.4793 26.0355C74.6015 26.2713 74.7734 26.4531 74.995 26.581C75.2166 26.7088 75.4793 26.7727 75.7833 26.7727C75.985 26.7727 76.1697 26.7443 76.3373 26.6875C76.5049 26.6307 76.6484 26.5455 76.7677 26.4318C76.887 26.3182 76.9779 26.179 77.0404 26.0142L78.7194 26.125C78.6342 26.5284 78.4594 26.8807 78.1952 27.1818C77.9339 27.4801 77.5958 27.7131 77.181 27.8807C76.7691 28.0455 76.2933 28.1278 75.7535 28.1278ZM84.6978 24.0028V25.4304H81.2802V24.0028H84.6978ZM81.8768 21.4545V28H80.1424V21.4545H81.8768ZM85.8356 21.4545V28H84.114V21.4545H85.8356ZM89.3104 28.1236C88.8928 28.1236 88.5207 28.0511 88.194 27.9062C87.8673 27.7585 87.6087 27.5412 87.4184 27.2543C87.2309 26.9645 87.1371 26.6037 87.1371 26.1719C87.1371 25.8082 87.2039 25.5028 87.3374 25.2557C87.4709 25.0085 87.6528 24.8097 87.8829 24.6591C88.113 24.5085 88.3744 24.3949 88.667 24.3182C88.9624 24.2415 89.2721 24.1875 89.5959 24.1562C89.9766 24.1165 90.2834 24.0795 90.5164 24.0455C90.7494 24.0085 90.9184 23.9545 91.0235 23.8835C91.1286 23.8125 91.1812 23.7074 91.1812 23.5682V23.5426C91.1812 23.2727 91.0959 23.0639 90.9255 22.9162C90.7579 22.7685 90.5192 22.6946 90.2096 22.6946C89.8829 22.6946 89.6229 22.767 89.4298 22.9119C89.2366 23.054 89.1087 23.233 89.0462 23.4489L87.3673 23.3125C87.4525 22.9148 87.6201 22.571 87.8701 22.2812C88.1201 21.9886 88.4425 21.7642 88.8374 21.608C89.2352 21.4489 89.6954 21.3693 90.2181 21.3693C90.5817 21.3693 90.9298 21.4119 91.2621 21.4972C91.5974 21.5824 91.8942 21.7145 92.1528 21.8935C92.4141 22.0724 92.6201 22.3026 92.7707 22.5838C92.9212 22.8622 92.9965 23.196 92.9965 23.5852V28H91.2749V27.0923H91.2238C91.1187 27.2969 90.9781 27.4773 90.8019 27.6335C90.6258 27.7869 90.4141 27.9077 90.167 27.9957C89.9198 28.081 89.6343 28.1236 89.3104 28.1236ZM89.8303 26.8707C90.0974 26.8707 90.3332 26.8182 90.5377 26.7131C90.7423 26.6051 90.9028 26.4602 91.0192 26.2784C91.1357 26.0966 91.194 25.8906 91.194 25.6605V24.9659C91.1371 25.0028 91.059 25.0369 90.9596 25.0682C90.863 25.0966 90.7536 25.1236 90.6315 25.1491C90.5093 25.1719 90.3871 25.1932 90.265 25.2131C90.1428 25.2301 90.032 25.2457 89.9326 25.2599C89.7195 25.2912 89.5334 25.3409 89.3744 25.4091C89.2153 25.4773 89.0917 25.5696 89.0036 25.6861C88.9156 25.7997 88.8715 25.9418 88.8715 26.1122C88.8715 26.3594 88.961 26.5483 89.14 26.679C89.3218 26.8068 89.5519 26.8707 89.8303 26.8707ZM94.1788 28L96.4671 24.5952L94.1915 21.4545H96.2626L97.9629 24.0156H98.2441V21.4545H100.059V24.0156H100.332L102.032 21.4545H104.103L101.832 24.5952L104.116 28H101.998L100.315 25.4432H100.059V28H98.2441V25.4432H97.9884L96.2967 28H94.1788ZM108.089 28.1278C107.415 28.1278 106.836 27.9915 106.35 27.7188C105.867 27.4432 105.495 27.054 105.234 26.5511C104.972 26.0455 104.841 25.4474 104.841 24.7571C104.841 24.0838 104.972 23.4929 105.234 22.9844C105.495 22.4759 105.863 22.0795 106.337 21.7955C106.814 21.5114 107.374 21.3693 108.016 21.3693C108.448 21.3693 108.85 21.4389 109.222 21.5781C109.597 21.7145 109.924 21.9205 110.202 22.196C110.484 22.4716 110.702 22.8182 110.859 23.2358C111.015 23.6506 111.093 24.1364 111.093 24.6932V25.1918H105.566V24.0668H109.384C109.384 23.8054 109.327 23.5739 109.214 23.3722C109.1 23.1705 108.942 23.0128 108.741 22.8991C108.542 22.7827 108.31 22.7244 108.046 22.7244C107.77 22.7244 107.526 22.7884 107.313 22.9162C107.103 23.0412 106.938 23.2102 106.819 23.4233C106.699 23.6335 106.638 23.8679 106.636 24.1264V25.196C106.636 25.5199 106.695 25.7997 106.814 26.0355C106.937 26.2713 107.109 26.4531 107.33 26.581C107.552 26.7088 107.814 26.7727 108.118 26.7727C108.32 26.7727 108.505 26.7443 108.672 26.6875C108.84 26.6307 108.984 26.5455 109.103 26.4318C109.222 26.3182 109.313 26.179 109.376 26.0142L111.055 26.125C110.969 26.5284 110.795 26.8807 110.53 27.1818C110.269 27.4801 109.931 27.7131 109.516 27.8807C109.104 28.0455 108.628 28.1278 108.089 28.1278ZM112.478 30.4545V21.4545H114.267V22.554H114.348C114.428 22.3778 114.543 22.1989 114.693 22.017C114.847 21.8324 115.046 21.679 115.29 21.5568C115.537 21.4318 115.844 21.3693 116.211 21.3693C116.688 21.3693 117.128 21.4943 117.532 21.7443C117.935 21.9915 118.257 22.3651 118.499 22.8651C118.74 23.3622 118.861 23.9858 118.861 24.7358C118.861 25.4659 118.743 26.0824 118.507 26.5852C118.274 27.0852 117.956 27.4645 117.553 27.723C117.152 27.9787 116.703 28.1065 116.206 28.1065C115.854 28.1065 115.554 28.0483 115.307 27.9318C115.063 27.8153 114.863 27.669 114.706 27.4929C114.55 27.3139 114.431 27.1335 114.348 26.9517H114.293V30.4545H112.478ZM114.255 24.7273C114.255 25.1165 114.309 25.456 114.416 25.7457C114.524 26.0355 114.681 26.2614 114.885 26.4233C115.09 26.5824 115.338 26.6619 115.631 26.6619C115.926 26.6619 116.176 26.581 116.381 26.419C116.586 26.2543 116.74 26.027 116.845 25.7372C116.953 25.4446 117.007 25.108 117.007 24.7273C117.007 24.3494 116.955 24.017 116.85 23.7301C116.745 23.4432 116.59 23.2187 116.385 23.0568C116.181 22.8949 115.929 22.8139 115.631 22.8139C115.336 22.8139 115.086 22.892 114.881 23.0483C114.679 23.2045 114.524 23.4261 114.416 23.7131C114.309 24 114.255 24.3381 114.255 24.7273ZM121.409 23.4659H123.365C124.232 23.4659 124.908 23.6733 125.393 24.0881C125.879 24.5 126.122 25.0511 126.122 25.7415C126.122 26.1903 126.013 26.5852 125.794 26.9261C125.575 27.2642 125.26 27.5284 124.848 27.7188C124.436 27.9062 123.942 28 123.365 28H120.271V21.4545H122.006V26.5724H123.365C123.669 26.5724 123.919 26.4957 124.115 26.3423C124.311 26.1889 124.411 25.9929 124.413 25.7543C124.411 25.5014 124.311 25.2955 124.115 25.1364C123.919 24.9744 123.669 24.8935 123.365 24.8935H121.409V23.4659ZM126.825 28V21.4545H128.641V28H126.825ZM137.824 24.0028V25.4304H134.407V24.0028H137.824ZM135.003 21.4545V28H133.269V21.4545H135.003ZM138.962 21.4545V28H137.241V21.4545H138.962ZM142.437 28.1236C142.019 28.1236 141.647 28.0511 141.321 27.9062C140.994 27.7585 140.735 27.5412 140.545 27.2543C140.357 26.9645 140.264 26.6037 140.264 26.1719C140.264 25.8082 140.33 25.5028 140.464 25.2557C140.598 25.0085 140.779 24.8097 141.009 24.6591C141.24 24.5085 141.501 24.3949 141.794 24.3182C142.089 24.2415 142.399 24.1875 142.723 24.1562C143.103 24.1165 143.41 24.0795 143.643 24.0455C143.876 24.0085 144.045 23.9545 144.15 23.8835C144.255 23.8125 144.308 23.7074 144.308 23.5682V23.5426C144.308 23.2727 144.223 23.0639 144.052 22.9162C143.884 22.7685 143.646 22.6946 143.336 22.6946C143.009 22.6946 142.75 22.767 142.556 22.9119C142.363 23.054 142.235 23.233 142.173 23.4489L140.494 23.3125C140.579 22.9148 140.747 22.571 140.997 22.2812C141.247 21.9886 141.569 21.7642 141.964 21.608C142.362 21.4489 142.822 21.3693 143.345 21.3693C143.708 21.3693 144.056 21.4119 144.389 21.4972C144.724 21.5824 145.021 21.7145 145.279 21.8935C145.541 22.0724 145.747 22.3026 145.897 22.5838C146.048 22.8622 146.123 23.196 146.123 23.5852V28H144.401V27.0923H144.35C144.245 27.2969 144.105 27.4773 143.928 27.6335C143.752 27.7869 143.541 27.9077 143.294 27.9957C143.046 28.081 142.761 28.1236 142.437 28.1236ZM142.957 26.8707C143.224 26.8707 143.46 26.8182 143.664 26.7131C143.869 26.6051 144.029 26.4602 144.146 26.2784C144.262 26.0966 144.321 25.8906 144.321 25.6605V24.9659C144.264 25.0028 144.186 25.0369 144.086 25.0682C143.99 25.0966 143.88 25.1236 143.758 25.1491C143.636 25.1719 143.514 25.1932 143.392 25.2131C143.269 25.2301 143.159 25.2457 143.059 25.2599C142.846 25.2912 142.66 25.3409 142.501 25.4091C142.342 25.4773 142.218 25.5696 142.13 25.6861C142.042 25.7997 141.998 25.9418 141.998 26.1122C141.998 26.3594 142.088 26.5483 142.267 26.679C142.448 26.8068 142.678 26.8707 142.957 26.8707ZM150.743 28V19.2727H152.588V22.8736H156.334V19.2727H158.175V28H156.334V24.3949H152.588V28H150.743ZM159.564 20.794V19.2727H166.731V20.794H164.059V28H162.236V20.794H159.564ZM168.112 19.2727H170.387L172.791 25.1364H172.893L175.296 19.2727H177.572V28H175.782V22.3196H175.71L173.451 27.9574H172.232L169.974 22.2983H169.901V28H168.112V19.2727ZM179.292 28V19.2727H181.137V26.4787H184.879V28H179.292ZM190.782 28H188.805L191.818 19.2727H194.196L197.204 28H195.227L193.041 21.267H192.973L190.782 28ZM190.659 24.5696H195.329V26.0099H190.659V24.5696ZM201.073 28.1278C200.403 28.1278 199.826 27.9858 199.343 27.7017C198.863 27.4148 198.494 27.017 198.235 26.5085C197.979 26 197.852 25.4148 197.852 24.7528C197.852 24.0824 197.981 23.4943 198.239 22.9886C198.501 22.4801 198.872 22.0838 199.352 21.7997C199.832 21.5128 200.403 21.3693 201.065 21.3693C201.636 21.3693 202.136 21.473 202.565 21.6804C202.994 21.8878 203.333 22.179 203.583 22.554C203.833 22.929 203.971 23.3693 203.997 23.875H202.283C202.235 23.5483 202.107 23.2855 201.9 23.0866C201.695 22.8849 201.427 22.7841 201.095 22.7841C200.813 22.7841 200.568 22.8608 200.357 23.0142C200.15 23.1648 199.988 23.3849 199.872 23.6747C199.755 23.9645 199.697 24.3153 199.697 24.7273C199.697 25.1449 199.754 25.5 199.867 25.7926C199.984 26.0852 200.147 26.3082 200.357 26.4616C200.568 26.6151 200.813 26.6918 201.095 26.6918C201.302 26.6918 201.488 26.6491 201.653 26.5639C201.82 26.4787 201.958 26.3551 202.066 26.1932C202.177 26.0284 202.249 25.831 202.283 25.6009H203.997C203.968 26.1009 203.832 26.5412 203.587 26.9219C203.346 27.2997 203.012 27.5952 202.586 27.8082C202.16 28.0213 201.656 28.1278 201.073 28.1278ZM207.225 28.1236C206.808 28.1236 206.436 28.0511 206.109 27.9062C205.782 27.7585 205.524 27.5412 205.333 27.2543C205.146 26.9645 205.052 26.6037 205.052 26.1719C205.052 25.8082 205.119 25.5028 205.252 25.2557C205.386 25.0085 205.568 24.8097 205.798 24.6591C206.028 24.5085 206.289 24.3949 206.582 24.3182C206.877 24.2415 207.187 24.1875 207.511 24.1562C207.891 24.1165 208.198 24.0795 208.431 24.0455C208.664 24.0085 208.833 23.9545 208.938 23.8835C209.043 23.8125 209.096 23.7074 209.096 23.5682V23.5426C209.096 23.2727 209.011 23.0639 208.84 22.9162C208.673 22.7685 208.434 22.6946 208.124 22.6946C207.798 22.6946 207.538 22.767 207.345 22.9119C207.151 23.054 207.024 23.233 206.961 23.4489L205.282 23.3125C205.367 22.9148 205.535 22.571 205.785 22.2812C206.035 21.9886 206.357 21.7642 206.752 21.608C207.15 21.4489 207.61 21.3693 208.133 21.3693C208.497 21.3693 208.845 21.4119 209.177 21.4972C209.512 21.5824 209.809 21.7145 210.068 21.8935C210.329 22.0724 210.535 22.3026 210.686 22.5838C210.836 22.8622 210.911 23.196 210.911 23.5852V28H209.19V27.0923H209.139C209.034 27.2969 208.893 27.4773 208.717 27.6335C208.541 27.7869 208.329 27.9077 208.082 27.9957C207.835 28.081 207.549 28.1236 207.225 28.1236ZM207.745 26.8707C208.012 26.8707 208.248 26.8182 208.453 26.7131C208.657 26.6051 208.818 26.4602 208.934 26.2784C209.051 26.0966 209.109 25.8906 209.109 25.6605V24.9659C209.052 25.0028 208.974 25.0369 208.874 25.0682C208.778 25.0966 208.668 25.1236 208.546 25.1491C208.424 25.1719 208.302 25.1932 208.18 25.2131C208.058 25.2301 207.947 25.2457 207.847 25.2599C207.634 25.2912 207.448 25.3409 207.289 25.4091C207.13 25.4773 207.007 25.5696 206.918 25.6861C206.83 25.7997 206.786 25.9418 206.786 26.1122C206.786 26.3594 206.876 26.5483 207.055 26.679C207.237 26.8068 207.467 26.8707 207.745 26.8707ZM214.932 28.1065C214.435 28.1065 213.984 27.9787 213.581 27.723C213.18 27.4645 212.862 27.0852 212.626 26.5852C212.393 26.0824 212.277 25.4659 212.277 24.7358C212.277 23.9858 212.398 23.3622 212.639 22.8651C212.881 22.3651 213.202 21.9915 213.602 21.7443C214.006 21.4943 214.447 21.3693 214.927 21.3693C215.294 21.3693 215.599 21.4318 215.844 21.5568C216.091 21.679 216.29 21.8324 216.44 22.017C216.594 22.1989 216.71 22.3778 216.79 22.554H216.845V19.2727H218.656V28H216.866V26.9517H216.79C216.704 27.1335 216.584 27.3139 216.427 27.4929C216.274 27.669 216.074 27.8153 215.827 27.9318C215.582 28.0483 215.284 28.1065 214.932 28.1065ZM215.507 26.6619C215.8 26.6619 216.047 26.5824 216.248 26.4233C216.453 26.2614 216.609 26.0355 216.717 25.7457C216.828 25.456 216.883 25.1165 216.883 24.7273C216.883 24.3381 216.829 24 216.721 23.7131C216.614 23.4261 216.457 23.2045 216.253 23.0483C216.048 22.892 215.8 22.8139 215.507 22.8139C215.209 22.8139 214.957 22.8949 214.753 23.0568C214.548 23.2187 214.393 23.4432 214.288 23.7301C214.183 24.017 214.131 24.3494 214.131 24.7273C214.131 25.108 214.183 25.4446 214.288 25.7372C214.396 26.027 214.551 26.2543 214.753 26.419C214.957 26.581 215.209 26.6619 215.507 26.6619ZM223.332 28.1278C222.658 28.1278 222.079 27.9915 221.593 27.7188C221.11 27.4432 220.738 27.054 220.476 26.5511C220.215 26.0455 220.084 25.4474 220.084 24.7571C220.084 24.0838 220.215 23.4929 220.476 22.9844C220.738 22.4759 221.106 22.0795 221.58 21.7955C222.057 21.5114 222.617 21.3693 223.259 21.3693C223.691 21.3693 224.093 21.4389 224.465 21.5781C224.84 21.7145 225.167 21.9205 225.445 22.196C225.726 22.4716 225.945 22.8182 226.101 23.2358C226.258 23.6506 226.336 24.1364 226.336 24.6932V25.1918H220.809V24.0668H224.627C224.627 23.8054 224.57 23.5739 224.457 23.3722C224.343 23.1705 224.185 23.0128 223.984 22.8991C223.785 22.7827 223.553 22.7244 223.289 22.7244C223.013 22.7244 222.769 22.7884 222.556 22.9162C222.346 23.0412 222.181 23.2102 222.062 23.4233C221.942 23.6335 221.881 23.8679 221.878 24.1264V25.196C221.878 25.5199 221.938 25.7997 222.057 26.0355C222.18 26.2713 222.351 26.4531 222.573 26.581C222.795 26.7088 223.057 26.7727 223.361 26.7727C223.563 26.7727 223.748 26.7443 223.915 26.6875C224.083 26.6307 224.226 26.5455 224.346 26.4318C224.465 26.3182 224.556 26.179 224.619 26.0142L226.298 26.125C226.212 26.5284 226.038 26.8807 225.773 27.1818C225.512 27.4801 225.174 27.7131 224.759 27.8807C224.347 28.0455 223.871 28.1278 223.332 28.1278ZM227.721 28V21.4545H229.451V22.6094H229.527C229.664 22.2259 229.891 21.9233 230.209 21.7017C230.527 21.4801 230.908 21.3693 231.351 21.3693C231.8 21.3693 232.182 21.4815 232.498 21.706C232.813 21.9276 233.023 22.2287 233.128 22.6094H233.196C233.33 22.2344 233.571 21.9347 233.921 21.7102C234.273 21.483 234.689 21.3693 235.169 21.3693C235.78 21.3693 236.276 21.5639 236.657 21.9531C237.04 22.3395 237.232 22.8878 237.232 23.598V28H235.421V23.956C235.421 23.5923 235.324 23.3196 235.131 23.1378C234.938 22.956 234.696 22.8651 234.407 22.8651C234.077 22.8651 233.82 22.9702 233.635 23.1804C233.451 23.3878 233.358 23.6619 233.358 24.0028V28H231.598V23.9176C231.598 23.5966 231.506 23.3409 231.321 23.1506C231.14 22.9602 230.9 22.8651 230.601 22.8651C230.4 22.8651 230.218 22.9162 230.056 23.0185C229.897 23.1179 229.77 23.2585 229.676 23.4403C229.583 23.6193 229.536 23.8295 229.536 24.071V28H227.721ZM238.866 28V21.4545H240.596V22.6094H240.673C240.809 22.2259 241.036 21.9233 241.354 21.7017C241.673 21.4801 242.053 21.3693 242.497 21.3693C242.945 21.3693 243.327 21.4815 243.643 21.706C243.958 21.9276 244.168 22.2287 244.274 22.6094H244.342C244.475 22.2344 244.717 21.9347 245.066 21.7102C245.418 21.483 245.835 21.3693 246.315 21.3693C246.926 21.3693 247.421 21.5639 247.802 21.9531C248.185 22.3395 248.377 22.8878 248.377 23.598V28H246.566V23.956C246.566 23.5923 246.47 23.3196 246.276 23.1378C246.083 22.956 245.842 22.8651 245.552 22.8651C245.222 22.8651 244.965 22.9702 244.781 23.1804C244.596 23.3878 244.504 23.6619 244.504 24.0028V28H242.744V23.9176C242.744 23.5966 242.651 23.3409 242.467 23.1506C242.285 22.9602 242.045 22.8651 241.747 22.8651C241.545 22.8651 241.363 22.9162 241.201 23.0185C241.042 23.1179 240.916 23.2585 240.822 23.4403C240.728 23.6193 240.681 23.8295 240.681 24.071V28H238.866ZM250.898 30.4545C250.667 30.4545 250.451 30.4361 250.25 30.3991C250.051 30.3651 249.886 30.321 249.755 30.267L250.165 28.9119C250.378 28.9773 250.569 29.0128 250.74 29.0185C250.913 29.0241 251.062 28.9844 251.187 28.8991C251.315 28.8139 251.419 28.669 251.498 28.4645L251.605 28.1875L249.257 21.4545H251.166L252.521 26.2614H252.589L253.957 21.4545H255.879L253.335 28.7074C253.213 29.0597 253.047 29.3665 252.836 29.6278C252.629 29.892 252.366 30.0952 252.048 30.2372C251.73 30.3821 251.346 30.4545 250.898 30.4545Z" fill="white"/>
<path d="M18 26L25.1909 32.8124C26.4437 33.9993 28.4372 33.8871 29.5489 32.567L43.5 16" stroke="white" stroke-width="4"/>
</svg>
