<svg width="313" height="48" viewBox="0 0 313 48" fill="none" xmlns="http://www.w3.org/2000/svg">
<rect width="313" height="48" rx="24" fill="#2C3144"/>
<path d="M57.7327 28H55.7554L58.7682 19.2727H61.1461L64.1546 28H62.1773L59.9912 21.267H59.923L57.7327 28ZM57.6091 24.5696H62.2796V26.0099H57.6091V24.5696ZM69.9263 24.0028V25.4304H66.5087V24.0028H69.9263ZM67.1053 21.4545V28H65.3709V21.4545H67.1053ZM71.0641 21.4545V28H69.3425V21.4545H71.0641ZM74.4069 25.6051L76.7634 21.4545H78.5532V28H76.8231V23.8366L74.475 28H72.6725V21.4545H74.4069V25.6051ZM84.0777 25.9929L85.8505 21.4545H87.2311L84.6786 28H83.4726L80.9797 21.4545H82.3561L84.0777 25.9929ZM81.9428 21.4545V28H80.2084V21.4545H81.9428ZM86.3022 28V21.4545H88.0152V28H86.3022ZM91.4858 28.1236C91.0682 28.1236 90.6961 28.0511 90.3694 27.9062C90.0427 27.7585 89.7841 27.5412 89.5938 27.2543C89.4063 26.9645 89.3125 26.6037 89.3125 26.1719C89.3125 25.8082 89.3793 25.5028 89.5128 25.2557C89.6463 25.0085 89.8282 24.8097 90.0583 24.6591C90.2884 24.5085 90.5498 24.3949 90.8424 24.3182C91.1378 24.2415 91.4475 24.1875 91.7713 24.1562C92.152 24.1165 92.4588 24.0795 92.6918 24.0455C92.9248 24.0085 93.0938 23.9545 93.1989 23.8835C93.304 23.8125 93.3566 23.7074 93.3566 23.5682V23.5426C93.3566 23.2727 93.2713 23.0639 93.1009 22.9162C92.9333 22.7685 92.6946 22.6946 92.385 22.6946C92.0583 22.6946 91.7983 22.767 91.6052 22.9119C91.412 23.054 91.2841 23.233 91.2216 23.4489L89.5427 23.3125C89.6279 22.9148 89.7955 22.571 90.0455 22.2812C90.2955 21.9886 90.6179 21.7642 91.0128 21.608C91.4106 21.4489 91.8708 21.3693 92.3935 21.3693C92.7571 21.3693 93.1052 21.4119 93.4375 21.4972C93.7728 21.5824 94.0696 21.7145 94.3282 21.8935C94.5895 22.0724 94.7955 22.3026 94.9461 22.5838C95.0966 22.8622 95.1719 23.196 95.1719 23.5852V28H93.4503V27.0923H93.3992C93.2941 27.2969 93.1535 27.4773 92.9773 27.6335C92.8012 27.7869 92.5895 27.9077 92.3424 27.9957C92.0952 28.081 91.8097 28.1236 91.4858 28.1236ZM92.0057 26.8707C92.2728 26.8707 92.5086 26.8182 92.7131 26.7131C92.9177 26.6051 93.0782 26.4602 93.1946 26.2784C93.3111 26.0966 93.3694 25.8906 93.3694 25.6605V24.9659C93.3125 25.0028 93.2344 25.0369 93.135 25.0682C93.0384 25.0966 92.929 25.1236 92.8069 25.1491C92.6847 25.1719 92.5625 25.1932 92.4404 25.2131C92.3182 25.2301 92.2074 25.2457 92.108 25.2599C91.8949 25.2912 91.7088 25.3409 91.5498 25.4091C91.3907 25.4773 91.2671 25.5696 91.179 25.6861C91.091 25.7997 91.0469 25.9418 91.0469 26.1122C91.0469 26.3594 91.1364 26.5483 91.3154 26.679C91.4972 26.8068 91.7273 26.8707 92.0057 26.8707ZM102.503 21.4545V26.7472H103.547V30.1051H101.783V28H96.7803V21.4545H98.5147V26.5724H100.79V21.4545H102.503ZM106.601 25.6051L108.958 21.4545H110.748V28H109.018V23.8366L106.67 28H104.867V21.4545H106.601V25.6051ZM115.386 28.1278C114.713 28.1278 114.133 27.9915 113.647 27.7188C113.164 27.4432 112.792 27.054 112.531 26.5511C112.269 26.0455 112.139 25.4474 112.139 24.7571C112.139 24.0838 112.269 23.4929 112.531 22.9844C112.792 22.4759 113.16 22.0795 113.634 21.7955C114.112 21.5114 114.671 21.3693 115.313 21.3693C115.745 21.3693 116.147 21.4389 116.519 21.5781C116.894 21.7145 117.221 21.9205 117.5 22.196C117.781 22.4716 118 22.8182 118.156 23.2358C118.312 23.6506 118.39 24.1364 118.39 24.6932V25.1918H112.863V24.0668H116.681C116.681 23.8054 116.625 23.5739 116.511 23.3722C116.397 23.1705 116.24 23.0128 116.038 22.8991C115.839 22.7827 115.607 22.7244 115.343 22.7244C115.068 22.7244 114.823 22.7884 114.61 22.9162C114.4 23.0412 114.235 23.2102 114.116 23.4233C113.997 23.6335 113.936 23.8679 113.933 24.1264V25.196C113.933 25.5199 113.992 25.7997 114.112 26.0355C114.234 26.2713 114.406 26.4531 114.627 26.581C114.849 26.7088 115.112 26.7727 115.416 26.7727C115.617 26.7727 115.802 26.7443 115.97 26.6875C116.137 26.6307 116.281 26.5455 116.4 26.4318C116.519 26.3182 116.61 26.179 116.673 26.0142L118.352 26.125C118.267 26.5284 118.092 26.8807 117.828 27.1818C117.566 27.4801 117.228 27.7131 116.813 27.8807C116.402 28.0455 115.926 28.1278 115.386 28.1278ZM121.509 25.6051L123.866 21.4545H125.656V28H123.925V23.8366L121.577 28H119.775V21.4545H121.509V25.6051ZM123.555 19.1705H124.82C124.817 19.6875 124.626 20.1037 124.245 20.419C123.867 20.7344 123.356 20.892 122.711 20.892C122.063 20.892 121.55 20.7344 121.173 20.419C120.795 20.1037 120.606 19.6875 120.606 19.1705H121.863C121.86 19.3665 121.923 19.5426 122.05 19.6989C122.181 19.8551 122.401 19.9332 122.711 19.9332C123.012 19.9332 123.228 19.8565 123.359 19.7031C123.489 19.5497 123.555 19.3722 123.555 19.1705ZM132.022 25.6051L134.379 21.4545H136.169V28H134.439V23.8366L132.091 28H130.288V21.4545H132.022V25.6051ZM142.668 28.1236C142.25 28.1236 141.878 28.0511 141.551 27.9062C141.225 27.7585 140.966 27.5412 140.776 27.2543C140.588 26.9645 140.495 26.6037 140.495 26.1719C140.495 25.8082 140.561 25.5028 140.695 25.2557C140.828 25.0085 141.01 24.8097 141.24 24.6591C141.47 24.5085 141.732 24.3949 142.024 24.3182C142.32 24.2415 142.63 24.1875 142.953 24.1562C143.334 24.1165 143.641 24.0795 143.874 24.0455C144.107 24.0085 144.276 23.9545 144.381 23.8835C144.486 23.8125 144.539 23.7074 144.539 23.5682V23.5426C144.539 23.2727 144.453 23.0639 144.283 22.9162C144.115 22.7685 143.877 22.6946 143.567 22.6946C143.24 22.6946 142.98 22.767 142.787 22.9119C142.594 23.054 142.466 23.233 142.404 23.4489L140.725 23.3125C140.81 22.9148 140.978 22.571 141.228 22.2812C141.478 21.9886 141.8 21.7642 142.195 21.608C142.593 21.4489 143.053 21.3693 143.576 21.3693C143.939 21.3693 144.287 21.4119 144.62 21.4972C144.955 21.5824 145.252 21.7145 145.51 21.8935C145.772 22.0724 145.978 22.3026 146.128 22.5838C146.279 22.8622 146.354 23.196 146.354 23.5852V28H144.632V27.0923H144.581C144.476 27.2969 144.335 27.4773 144.159 27.6335C143.983 27.7869 143.772 27.9077 143.524 27.9957C143.277 28.081 142.992 28.1236 142.668 28.1236ZM143.188 26.8707C143.455 26.8707 143.691 26.8182 143.895 26.7131C144.1 26.6051 144.26 26.4602 144.377 26.2784C144.493 26.0966 144.551 25.8906 144.551 25.6605V24.9659C144.495 25.0028 144.416 25.0369 144.317 25.0682C144.22 25.0966 144.111 25.1236 143.989 25.1491C143.867 25.1719 143.745 25.1932 143.622 25.2131C143.5 25.2301 143.389 25.2457 143.29 25.2599C143.077 25.2912 142.891 25.3409 142.732 25.4091C142.573 25.4773 142.449 25.5696 142.361 25.6861C142.273 25.7997 142.229 25.9418 142.229 26.1122C142.229 26.3594 142.318 26.5483 142.497 26.679C142.679 26.8068 142.909 26.8707 143.188 26.8707ZM147.451 29.9176V26.5597H147.954C148.099 26.4687 148.215 26.3239 148.303 26.125C148.394 25.9261 148.468 25.6918 148.525 25.4219C148.584 25.152 148.63 24.8608 148.661 24.5483C148.695 24.233 148.725 23.9148 148.751 23.5938L148.921 21.4545H153.941V26.5597H154.955V29.9176H153.225V28H149.224V29.9176H147.451ZM149.761 26.5597H152.228V22.8523H150.464L150.396 23.5938C150.347 24.2926 150.278 24.8864 150.187 25.375C150.096 25.8608 149.954 26.2557 149.761 26.5597ZM158.08 28.1236C157.662 28.1236 157.29 28.0511 156.963 27.9062C156.636 27.7585 156.378 27.5412 156.188 27.2543C156 26.9645 155.906 26.6037 155.906 26.1719C155.906 25.8082 155.973 25.5028 156.107 25.2557C156.24 25.0085 156.422 24.8097 156.652 24.6591C156.882 24.5085 157.144 24.3949 157.436 24.3182C157.732 24.2415 158.041 24.1875 158.365 24.1562C158.746 24.1165 159.053 24.0795 159.286 24.0455C159.519 24.0085 159.688 23.9545 159.793 23.8835C159.898 23.8125 159.95 23.7074 159.95 23.5682V23.5426C159.95 23.2727 159.865 23.0639 159.695 22.9162C159.527 22.7685 159.288 22.6946 158.979 22.6946C158.652 22.6946 158.392 22.767 158.199 22.9119C158.006 23.054 157.878 23.233 157.815 23.4489L156.136 23.3125C156.222 22.9148 156.389 22.571 156.639 22.2812C156.889 21.9886 157.212 21.7642 157.607 21.608C158.004 21.4489 158.465 21.3693 158.987 21.3693C159.351 21.3693 159.699 21.4119 160.031 21.4972C160.367 21.5824 160.663 21.7145 160.922 21.8935C161.183 22.0724 161.389 22.3026 161.54 22.5838C161.69 22.8622 161.766 23.196 161.766 23.5852V28H160.044V27.0923H159.993C159.888 27.2969 159.747 27.4773 159.571 27.6335C159.395 27.7869 159.183 27.9077 158.936 27.9957C158.689 28.081 158.403 28.1236 158.08 28.1236ZM158.599 26.8707C158.867 26.8707 159.102 26.8182 159.307 26.7131C159.511 26.6051 159.672 26.4602 159.788 26.2784C159.905 26.0966 159.963 25.8906 159.963 25.6605V24.9659C159.906 25.0028 159.828 25.0369 159.729 25.0682C159.632 25.0966 159.523 25.1236 159.401 25.1491C159.278 25.1719 159.156 25.1932 159.034 25.2131C158.912 25.2301 158.801 25.2457 158.702 25.2599C158.489 25.2912 158.303 25.3409 158.144 25.4091C157.984 25.4773 157.861 25.5696 157.773 25.6861C157.685 25.7997 157.641 25.9418 157.641 26.1122C157.641 26.3594 157.73 26.5483 157.909 26.679C158.091 26.8068 158.321 26.8707 158.599 26.8707ZM163.374 28V21.4545H169.097V28H167.363V22.8821H165.087V28H163.374ZM170.089 22.8821V21.4545H176.02V22.8821H173.911V28H172.181V22.8821H170.089ZM179.055 25.6051L181.412 21.4545H183.202V28H181.471V23.8366L179.123 28H177.321V21.4545H179.055V25.6051ZM184.857 28V21.4545H187.648C188.455 21.4545 189.093 21.608 189.561 21.9148C190.03 22.2216 190.265 22.6577 190.265 23.223C190.265 23.5781 190.132 23.8736 189.868 24.1094C189.604 24.3452 189.238 24.5043 188.769 24.5866C189.161 24.6151 189.495 24.7045 189.77 24.8551C190.049 25.0028 190.26 25.1946 190.405 25.4304C190.553 25.6662 190.627 25.9276 190.627 26.2145C190.627 26.5866 190.527 26.9062 190.328 27.1733C190.132 27.4403 189.844 27.6449 189.463 27.7869C189.086 27.929 188.624 28 188.078 28H184.857ZM186.549 26.6406H188.078C188.331 26.6406 188.529 26.581 188.671 26.4616C188.816 26.3395 188.888 26.1733 188.888 25.9631C188.888 25.7301 188.816 25.5469 188.671 25.4134C188.529 25.2798 188.331 25.2131 188.078 25.2131H186.549V26.6406ZM186.549 24.1477H187.686C187.868 24.1477 188.023 24.1222 188.151 24.071C188.282 24.017 188.381 23.9403 188.449 23.8409C188.52 23.7415 188.556 23.6236 188.556 23.4872C188.556 23.2855 188.475 23.1278 188.313 23.0142C188.151 22.9006 187.929 22.8438 187.648 22.8438H186.549V24.1477ZM196.526 24.0028V25.4304H193.109V24.0028H196.526ZM193.705 21.4545V28H191.971V21.4545H193.705ZM197.664 21.4545V28H195.943V21.4545H197.664ZM200.41 23.4659H202.366C203.233 23.4659 203.909 23.6733 204.395 24.0881C204.88 24.5 205.123 25.0511 205.123 25.7415C205.123 26.1903 205.014 26.5852 204.795 26.9261C204.576 27.2642 204.261 27.5284 203.849 27.7188C203.437 27.9062 202.943 28 202.366 28H199.272V21.4545H201.007V26.5724H202.366C202.67 26.5724 202.92 26.4957 203.116 26.3423C203.312 26.1889 203.412 25.9929 203.415 25.7543C203.412 25.5014 203.312 25.2955 203.116 25.1364C202.92 24.9744 202.67 24.8935 202.366 24.8935H200.41V23.4659ZM205.826 28V21.4545H207.642V28H205.826ZM211.027 25.6051L213.384 21.4545H215.173V28H213.443V23.8366L211.095 28H209.293V21.4545H211.027V25.6051ZM213.073 19.1705H214.338C214.335 19.6875 214.144 20.1037 213.763 20.419C213.385 20.7344 212.874 20.892 212.229 20.892C211.581 20.892 211.068 20.7344 210.691 20.419C210.313 20.1037 210.124 19.6875 210.124 19.1705H211.381C211.378 19.3665 211.441 19.5426 211.568 19.6989C211.699 19.8551 211.919 19.9332 212.229 19.9332C212.53 19.9332 212.746 19.8565 212.877 19.7031C213.007 19.5497 213.073 19.3722 213.073 19.1705ZM221.54 25.6051L223.897 21.4545H225.687V28H223.957V23.8366L221.609 28H219.806V21.4545H221.54V25.6051ZM231.897 24.0028V25.4304H228.48V24.0028H231.897ZM229.076 21.4545V28H227.342V21.4545H229.076ZM233.035 21.4545V28H231.314V21.4545H233.035ZM233.986 22.8821V21.4545H239.918V22.8821H237.809V28H236.079V22.8821H233.986ZM243.967 28.1278C243.294 28.1278 242.714 27.9915 242.229 27.7188C241.746 27.4432 241.373 27.054 241.112 26.5511C240.851 26.0455 240.72 25.4474 240.72 24.7571C240.72 24.0838 240.851 23.4929 241.112 22.9844C241.373 22.4759 241.741 22.0795 242.216 21.7955C242.693 21.5114 243.253 21.3693 243.895 21.3693C244.327 21.3693 244.729 21.4389 245.101 21.5781C245.476 21.7145 245.802 21.9205 246.081 22.196C246.362 22.4716 246.581 22.8182 246.737 23.2358C246.893 23.6506 246.971 24.1364 246.971 24.6932V25.1918H241.444V24.0668H245.263C245.263 23.8054 245.206 23.5739 245.092 23.3722C244.979 23.1705 244.821 23.0128 244.619 22.8991C244.42 22.7827 244.189 22.7244 243.925 22.7244C243.649 22.7244 243.405 22.7884 243.192 22.9162C242.981 23.0412 242.817 23.2102 242.697 23.4233C242.578 23.6335 242.517 23.8679 242.514 24.1264V25.196C242.514 25.5199 242.574 25.7997 242.693 26.0355C242.815 26.2713 242.987 26.4531 243.209 26.581C243.43 26.7088 243.693 26.7727 243.997 26.7727C244.199 26.7727 244.383 26.7443 244.551 26.6875C244.719 26.6307 244.862 26.5455 244.981 26.4318C245.101 26.3182 245.192 26.179 245.254 26.0142L246.933 26.125C246.848 26.5284 246.673 26.8807 246.409 27.1818C246.148 27.4801 245.809 27.7131 245.395 27.8807C244.983 28.0455 244.507 28.1278 243.967 28.1278ZM248.356 30.4545V21.4545H250.146V22.554H250.227C250.306 22.3778 250.421 22.1989 250.572 22.017C250.725 21.8324 250.924 21.679 251.169 21.5568C251.416 21.4318 251.723 21.3693 252.089 21.3693C252.566 21.3693 253.007 21.4943 253.41 21.7443C253.813 21.9915 254.136 22.3651 254.377 22.8651C254.619 23.3622 254.74 23.9858 254.74 24.7358C254.74 25.4659 254.622 26.0824 254.386 26.5852C254.153 27.0852 253.835 27.4645 253.431 27.723C253.031 27.9787 252.582 28.1065 252.085 28.1065C251.732 28.1065 251.433 28.0483 251.186 27.9318C250.941 27.8153 250.741 27.669 250.585 27.4929C250.429 27.3139 250.309 27.1335 250.227 26.9517H250.171V30.4545H248.356ZM250.133 24.7273C250.133 25.1165 250.187 25.456 250.295 25.7457C250.403 26.0355 250.559 26.2614 250.764 26.4233C250.968 26.5824 251.217 26.6619 251.509 26.6619C251.805 26.6619 252.055 26.581 252.259 26.419C252.464 26.2543 252.619 26.027 252.724 25.7372C252.832 25.4446 252.886 25.108 252.886 24.7273C252.886 24.3494 252.833 24.017 252.728 23.7301C252.623 23.4432 252.468 23.2187 252.264 23.0568C252.059 22.8949 251.808 22.8139 251.509 22.8139C251.214 22.8139 250.964 22.892 250.759 23.0483C250.558 23.2045 250.403 23.4261 250.295 23.7131C250.187 24 250.133 24.3381 250.133 24.7273ZM259.282 30.2244V19.2727H261.093V30.2244H259.282ZM259.282 28.1278C258.779 28.1278 258.32 28.0469 257.906 27.8849C257.491 27.7202 257.133 27.4886 256.832 27.1903C256.531 26.8892 256.298 26.5327 256.133 26.1207C255.968 25.706 255.886 25.25 255.886 24.7528C255.886 24.25 255.968 23.7926 256.133 23.3807C256.298 22.9659 256.531 22.6094 256.832 22.3111C257.133 22.0099 257.491 21.7784 257.906 21.6165C258.32 21.4517 258.779 21.3693 259.282 21.3693H259.619V28.1278H259.282ZM259.282 26.7131H259.482V22.7841H259.282C259.038 22.7841 258.82 22.8352 258.63 22.9375C258.44 23.0398 258.279 23.1804 258.148 23.3594C258.018 23.5355 257.918 23.7429 257.85 23.9815C257.785 24.2202 257.752 24.4773 257.752 24.7528C257.752 25.1165 257.812 25.4474 257.931 25.7457C258.05 26.0412 258.225 26.277 258.455 26.4531C258.685 26.6264 258.961 26.7131 259.282 26.7131ZM261.093 28.1278H260.756V21.3693H261.093C261.596 21.3693 262.055 21.4517 262.469 21.6165C262.884 21.7784 263.242 22.0099 263.543 22.3111C263.844 22.6094 264.077 22.9659 264.242 23.3807C264.407 23.7926 264.489 24.25 264.489 24.7528C264.489 25.25 264.407 25.706 264.242 26.1207C264.077 26.5327 263.844 26.8892 263.543 27.1903C263.242 27.4886 262.884 27.7202 262.469 27.8849C262.055 28.0469 261.596 28.1278 261.093 28.1278ZM261.093 26.7131C261.337 26.7131 261.555 26.6634 261.745 26.5639C261.935 26.4616 262.096 26.321 262.227 26.142C262.357 25.9631 262.457 25.7557 262.525 25.5199C262.593 25.2812 262.627 25.0256 262.627 24.7528C262.627 24.3864 262.566 24.0554 262.444 23.7599C262.325 23.4616 262.151 23.2244 261.924 23.0483C261.697 22.8722 261.42 22.7841 261.093 22.7841H260.893V26.7131H261.093ZM268.86 28.1278C268.187 28.1278 267.607 27.9915 267.121 27.7188C266.639 27.4432 266.266 27.054 266.005 26.5511C265.744 26.0455 265.613 25.4474 265.613 24.7571C265.613 24.0838 265.744 23.4929 266.005 22.9844C266.266 22.4759 266.634 22.0795 267.109 21.7955C267.586 21.5114 268.146 21.3693 268.788 21.3693C269.22 21.3693 269.621 21.4389 269.994 21.5781C270.369 21.7145 270.695 21.9205 270.974 22.196C271.255 22.4716 271.474 22.8182 271.63 23.2358C271.786 23.6506 271.864 24.1364 271.864 24.6932V25.1918H266.337V24.0668H270.156C270.156 23.8054 270.099 23.5739 269.985 23.3722C269.871 23.1705 269.714 23.0128 269.512 22.8991C269.313 22.7827 269.082 22.7244 268.818 22.7244C268.542 22.7244 268.298 22.7884 268.085 22.9162C267.874 23.0412 267.71 23.2102 267.59 23.4233C267.471 23.6335 267.41 23.8679 267.407 24.1264V25.196C267.407 25.5199 267.467 25.7997 267.586 26.0355C267.708 26.2713 267.88 26.4531 268.102 26.581C268.323 26.7088 268.586 26.7727 268.89 26.7727C269.092 26.7727 269.276 26.7443 269.444 26.6875C269.612 26.6307 269.755 26.5455 269.874 26.4318C269.994 26.3182 270.085 26.179 270.147 26.0142L271.826 26.125C271.741 26.5284 271.566 26.8807 271.302 27.1818C271.041 27.4801 270.702 27.7131 270.288 27.8807C269.876 28.0455 269.4 28.1278 268.86 28.1278ZM274.983 25.6051L277.34 21.4545H279.13V28H277.4V23.8366L275.052 28H273.249V21.4545H274.983V25.6051ZM277.029 19.1705H278.294C278.292 19.6875 278.1 20.1037 277.719 20.419C277.341 20.7344 276.83 20.892 276.185 20.892C275.537 20.892 275.025 20.7344 274.647 20.419C274.269 20.1037 274.08 19.6875 274.08 19.1705H275.337C275.334 19.3665 275.397 19.5426 275.525 19.6989C275.655 19.8551 275.875 19.9332 276.185 19.9332C276.486 19.9332 276.702 19.8565 276.833 19.7031C276.964 19.5497 277.029 19.3722 277.029 19.1705ZM283.742 28.1278C283.072 28.1278 282.495 27.9858 282.012 27.7017C281.532 27.4148 281.163 27.017 280.904 26.5085C280.649 26 280.521 25.4148 280.521 24.7528C280.521 24.0824 280.65 23.4943 280.909 22.9886C281.17 22.4801 281.541 22.0838 282.021 21.7997C282.501 21.5128 283.072 21.3693 283.734 21.3693C284.305 21.3693 284.805 21.473 285.234 21.6804C285.663 21.8878 286.002 22.179 286.252 22.554C286.502 22.929 286.64 23.3693 286.666 23.875H284.953C284.904 23.5483 284.776 23.2855 284.569 23.0866C284.365 22.8849 284.096 22.7841 283.764 22.7841C283.482 22.7841 283.237 22.8608 283.026 23.0142C282.819 23.1648 282.657 23.3849 282.541 23.6747C282.424 23.9645 282.366 24.3153 282.366 24.7273C282.366 25.1449 282.423 25.5 282.536 25.7926C282.653 26.0852 282.816 26.3082 283.026 26.4616C283.237 26.6151 283.482 26.6918 283.764 26.6918C283.971 26.6918 284.157 26.6491 284.322 26.5639C284.49 26.4787 284.627 26.3551 284.735 26.1932C284.846 26.0284 284.919 25.831 284.953 25.6009H286.666C286.637 26.1009 286.501 26.5412 286.257 26.9219C286.015 27.2997 285.681 27.5952 285.255 27.8082C284.829 28.0213 284.325 28.1278 283.742 28.1278Z" fill="white"/>
</svg>
