<svg width="313" height="48" viewBox="0 0 313 48" fill="none" xmlns="http://www.w3.org/2000/svg">
<rect width="313" height="48" rx="24" fill="#F17900"/>
<path d="M106.86 23.6364C106.86 24.5881 106.679 25.3977 106.318 26.0653C105.961 26.733 105.472 27.2429 104.853 27.5952C104.236 27.9446 103.543 28.1193 102.773 28.1193C101.997 28.1193 101.301 27.9432 100.685 27.5909C100.068 27.2386 99.5813 26.7287 99.2233 26.0611C98.8653 25.3935 98.6864 24.5852 98.6864 23.6364C98.6864 22.6847 98.8653 21.875 99.2233 21.2074C99.5813 20.5398 100.068 20.0312 100.685 19.6818C101.301 19.3295 101.997 19.1534 102.773 19.1534C103.543 19.1534 104.236 19.3295 104.853 19.6818C105.472 20.0312 105.961 20.5398 106.318 21.2074C106.679 21.875 106.86 22.6847 106.86 23.6364ZM104.989 23.6364C104.989 23.0199 104.897 22.5 104.712 22.0767C104.53 21.6534 104.273 21.3324 103.941 21.1136C103.608 20.8949 103.219 20.7855 102.773 20.7855C102.327 20.7855 101.938 20.8949 101.605 21.1136C101.273 21.3324 101.014 21.6534 100.83 22.0767C100.648 22.5 100.557 23.0199 100.557 23.6364C100.557 24.2528 100.648 24.7727 100.83 25.196C101.014 25.6193 101.273 25.9403 101.605 26.1591C101.938 26.3778 102.327 26.4872 102.773 26.4872C103.219 26.4872 103.608 26.3778 103.941 26.1591C104.273 25.9403 104.53 25.6193 104.712 25.196C104.897 24.7727 104.989 24.2528 104.989 23.6364ZM108.051 22.8821V21.4545H113.983V22.8821H111.874V28H110.144V22.8821H108.051ZM120.73 21.4545V28H119.008V21.4545H120.73ZM119.89 24.3267V25.7585C119.751 25.821 119.578 25.8807 119.37 25.9375C119.163 25.9915 118.946 26.0355 118.718 26.0696C118.491 26.1037 118.278 26.1207 118.079 26.1207C117.139 26.1207 116.399 25.9276 115.859 25.5412C115.319 25.152 115.049 24.5312 115.049 23.679V21.446H116.763V23.679C116.763 23.9318 116.805 24.1321 116.89 24.2798C116.978 24.4276 117.118 24.5341 117.308 24.5994C117.501 24.6619 117.758 24.6932 118.079 24.6932C118.378 24.6932 118.67 24.6619 118.957 24.5994C119.244 24.5369 119.555 24.446 119.89 24.3267ZM125.322 28.1278C124.649 28.1278 124.069 27.9915 123.584 27.7188C123.101 27.4432 122.728 27.054 122.467 26.5511C122.206 26.0455 122.075 25.4474 122.075 24.7571C122.075 24.0838 122.206 23.4929 122.467 22.9844C122.728 22.4759 123.096 22.0795 123.571 21.7955C124.048 21.5114 124.608 21.3693 125.25 21.3693C125.682 21.3693 126.084 21.4389 126.456 21.5781C126.831 21.7145 127.157 21.9205 127.436 22.196C127.717 22.4716 127.936 22.8182 128.092 23.2358C128.248 23.6506 128.326 24.1364 128.326 24.6932V25.1918H122.8V24.0668H126.618C126.618 23.8054 126.561 23.5739 126.447 23.3722C126.334 23.1705 126.176 23.0128 125.974 22.8991C125.775 22.7827 125.544 22.7244 125.28 22.7244C125.004 22.7244 124.76 22.7884 124.547 22.9162C124.336 23.0412 124.172 23.2102 124.052 23.4233C123.933 23.6335 123.872 23.8679 123.869 24.1264V25.196C123.869 25.5199 123.929 25.7997 124.048 26.0355C124.17 26.2713 124.342 26.4531 124.564 26.581C124.785 26.7088 125.048 26.7727 125.352 26.7727C125.554 26.7727 125.738 26.7443 125.906 26.6875C126.074 26.6307 126.217 26.5455 126.336 26.4318C126.456 26.3182 126.547 26.179 126.609 26.0142L128.288 26.125C128.203 26.5284 128.028 26.8807 127.764 27.1818C127.503 27.4801 127.165 27.7131 126.75 27.8807C126.338 28.0455 125.862 28.1278 125.322 28.1278ZM129.206 22.8821V21.4545H135.138V22.8821H133.029V28H131.299V22.8821H129.206ZM139.416 28V21.4545H145.139V28H143.404V22.8821H141.129V28H139.416ZM149.745 28.1278C149.083 28.1278 148.511 27.9872 148.028 27.706C147.548 27.4219 147.177 27.027 146.916 26.5213C146.654 26.0128 146.524 25.4233 146.524 24.7528C146.524 24.0767 146.654 23.4858 146.916 22.9801C147.177 22.4716 147.548 22.0767 148.028 21.7955C148.511 21.5114 149.083 21.3693 149.745 21.3693C150.407 21.3693 150.978 21.5114 151.458 21.7955C151.941 22.0767 152.313 22.4716 152.575 22.9801C152.836 23.4858 152.967 24.0767 152.967 24.7528C152.967 25.4233 152.836 26.0128 152.575 26.5213C152.313 27.027 151.941 27.4219 151.458 27.706C150.978 27.9872 150.407 28.1278 149.745 28.1278ZM149.754 26.7216C150.055 26.7216 150.306 26.6364 150.508 26.4659C150.71 26.2926 150.862 26.0568 150.964 25.7585C151.069 25.4602 151.122 25.1207 151.122 24.7401C151.122 24.3594 151.069 24.0199 150.964 23.7216C150.862 23.4233 150.71 23.1875 150.508 23.0142C150.306 22.8409 150.055 22.7543 149.754 22.7543C149.45 22.7543 149.194 22.8409 148.987 23.0142C148.782 23.1875 148.627 23.4233 148.522 23.7216C148.42 24.0199 148.369 24.3594 148.369 24.7401C148.369 25.1207 148.42 25.4602 148.522 25.7585C148.627 26.0568 148.782 26.2926 148.987 26.4659C149.194 26.6364 149.45 26.7216 149.754 26.7216ZM157.324 28V21.4545H163.047V28H161.313V22.8821H159.038V28H157.324ZM164.696 30.4545V21.4545H166.486V22.554H166.567C166.647 22.3778 166.762 22.1989 166.912 22.017C167.066 21.8324 167.264 21.679 167.509 21.5568C167.756 21.4318 168.063 21.3693 168.429 21.3693C168.907 21.3693 169.347 21.4943 169.75 21.7443C170.154 21.9915 170.476 22.3651 170.718 22.8651C170.959 23.3622 171.08 23.9858 171.08 24.7358C171.08 25.4659 170.962 26.0824 170.726 26.5852C170.493 27.0852 170.175 27.4645 169.772 27.723C169.371 27.9787 168.922 28.1065 168.425 28.1065C168.073 28.1065 167.773 28.0483 167.526 27.9318C167.282 27.8153 167.081 27.669 166.925 27.4929C166.769 27.3139 166.649 27.1335 166.567 26.9517H166.512V30.4545H164.696ZM166.473 24.7273C166.473 25.1165 166.527 25.456 166.635 25.7457C166.743 26.0355 166.899 26.2614 167.104 26.4233C167.309 26.5824 167.557 26.6619 167.85 26.6619C168.145 26.6619 168.395 26.581 168.6 26.419C168.804 26.2543 168.959 26.027 169.064 25.7372C169.172 25.4446 169.226 25.108 169.226 24.7273C169.226 24.3494 169.174 24.017 169.068 23.7301C168.963 23.4432 168.809 23.2187 168.604 23.0568C168.399 22.8949 168.148 22.8139 167.85 22.8139C167.554 22.8139 167.304 22.892 167.1 23.0483C166.898 23.2045 166.743 23.4261 166.635 23.7131C166.527 24 166.473 24.3381 166.473 24.7273ZM174.357 28.1236C173.939 28.1236 173.567 28.0511 173.24 27.9062C172.913 27.7585 172.655 27.5412 172.464 27.2543C172.277 26.9645 172.183 26.6037 172.183 26.1719C172.183 25.8082 172.25 25.5028 172.384 25.2557C172.517 25.0085 172.699 24.8097 172.929 24.6591C173.159 24.5085 173.42 24.3949 173.713 24.3182C174.009 24.2415 174.318 24.1875 174.642 24.1562C175.023 24.1165 175.33 24.0795 175.562 24.0455C175.795 24.0085 175.964 23.9545 176.07 23.8835C176.175 23.8125 176.227 23.7074 176.227 23.5682V23.5426C176.227 23.2727 176.142 23.0639 175.972 22.9162C175.804 22.7685 175.565 22.6946 175.256 22.6946C174.929 22.6946 174.669 22.767 174.476 22.9119C174.283 23.054 174.155 23.233 174.092 23.4489L172.413 23.3125C172.499 22.9148 172.666 22.571 172.916 22.2812C173.166 21.9886 173.489 21.7642 173.884 21.608C174.281 21.4489 174.741 21.3693 175.264 21.3693C175.628 21.3693 175.976 21.4119 176.308 21.4972C176.643 21.5824 176.94 21.7145 177.199 21.8935C177.46 22.0724 177.666 22.3026 177.817 22.5838C177.967 22.8622 178.043 23.196 178.043 23.5852V28H176.321V27.0923H176.27C176.165 27.2969 176.024 27.4773 175.848 27.6335C175.672 27.7869 175.46 27.9077 175.213 27.9957C174.966 28.081 174.68 28.1236 174.357 28.1236ZM174.876 26.8707C175.143 26.8707 175.379 26.8182 175.584 26.7131C175.788 26.6051 175.949 26.4602 176.065 26.2784C176.182 26.0966 176.24 25.8906 176.24 25.6605V24.9659C176.183 25.0028 176.105 25.0369 176.006 25.0682C175.909 25.0966 175.8 25.1236 175.678 25.1491C175.555 25.1719 175.433 25.1932 175.311 25.2131C175.189 25.2301 175.078 25.2457 174.979 25.2599C174.766 25.2912 174.58 25.3409 174.42 25.4091C174.261 25.4773 174.138 25.5696 174.05 25.6861C173.962 25.7997 173.918 25.9418 173.918 26.1122C173.918 26.3594 174.007 26.5483 174.186 26.679C174.368 26.8068 174.598 26.8707 174.876 26.8707ZM179.651 28V21.4545H181.466V23.9943H181.978L183.759 21.4545H185.89L183.576 24.7017L185.915 28H183.759L182.144 25.6776H181.466V28H179.651ZM186.541 22.8821V21.4545H192.473V22.8821H190.364V28H188.634V22.8821H186.541ZM195.508 25.6051L197.865 21.4545H199.654V28H197.924V23.8366L195.576 28H193.774V21.4545H195.508V25.6051ZM201.31 28V21.4545H203.125V23.9943H203.636L205.418 21.4545H207.548L205.234 24.7017L207.574 28H205.418L203.802 25.6776H203.125V28H201.31ZM211.254 28.1278C210.581 28.1278 210.001 27.9915 209.516 27.7188C209.033 27.4432 208.661 27.054 208.399 26.5511C208.138 26.0455 208.007 25.4474 208.007 24.7571C208.007 24.0838 208.138 23.4929 208.399 22.9844C208.661 22.4759 209.028 22.0795 209.503 21.7955C209.98 21.5114 210.54 21.3693 211.182 21.3693C211.614 21.3693 212.016 21.4389 212.388 21.5781C212.763 21.7145 213.089 21.9205 213.368 22.196C213.649 22.4716 213.868 22.8182 214.024 23.2358C214.18 23.6506 214.259 24.1364 214.259 24.6932V25.1918H208.732V24.0668H212.55C212.55 23.8054 212.493 23.5739 212.379 23.3722C212.266 23.1705 212.108 23.0128 211.906 22.8991C211.707 22.7827 211.476 22.7244 211.212 22.7244C210.936 22.7244 210.692 22.7884 210.479 22.9162C210.268 23.0412 210.104 23.2102 209.984 23.4233C209.865 23.6335 209.804 23.8679 209.801 24.1264V25.196C209.801 25.5199 209.861 25.7997 209.98 26.0355C210.102 26.2713 210.274 26.4531 210.496 26.581C210.717 26.7088 210.98 26.7727 211.284 26.7727C211.486 26.7727 211.67 26.7443 211.838 26.6875C212.006 26.6307 212.149 26.5455 212.268 26.4318C212.388 26.3182 212.479 26.179 212.541 26.0142L214.22 26.125C214.135 26.5284 213.96 26.8807 213.696 27.1818C213.435 27.4801 213.097 27.7131 212.682 27.8807C212.27 28.0455 211.794 28.1278 211.254 28.1278Z" fill="white"/>
<path d="M18 26L25.1909 32.8124C26.4437 33.9993 28.4372 33.8871 29.5489 32.567L43.5 16" stroke="white" stroke-width="4"/>
</svg>
