<svg width="64" height="32" viewBox="0 0 64 32" fill="none" xmlns="http://www.w3.org/2000/svg">
<rect x="0.5" y="0.5" width="63" height="31" rx="15.5" stroke="#2D3436"/>
<path d="M24.3461 15.4347H22.2154C22.187 15.2159 22.1287 15.0185 22.0407 14.8423C21.9526 14.6662 21.8361 14.5156 21.6912 14.3906C21.5463 14.2656 21.3745 14.1705 21.1756 14.1051C20.9796 14.0369 20.7623 14.0028 20.5236 14.0028C20.1003 14.0028 19.7353 14.1065 19.4284 14.3139C19.1245 14.5213 18.8901 14.821 18.7253 15.2131C18.5634 15.6051 18.4824 16.0795 18.4824 16.6364C18.4824 17.2159 18.5648 17.7017 18.7296 18.0938C18.8972 18.483 19.1316 18.777 19.4327 18.9759C19.7367 19.1719 20.0961 19.2699 20.5108 19.2699C20.7438 19.2699 20.9554 19.2401 21.1458 19.1804C21.339 19.1207 21.508 19.0341 21.6529 18.9205C21.8006 18.804 21.9213 18.6634 22.0151 18.4986C22.1117 18.331 22.1784 18.142 22.2154 17.9318L24.3461 17.9446C24.3091 18.331 24.1969 18.7116 24.0094 19.0866C23.8248 19.4616 23.5705 19.804 23.2466 20.1136C22.9228 20.4205 22.5279 20.6648 22.062 20.8466C21.5989 21.0284 21.0676 21.1193 20.4682 21.1193C19.6784 21.1193 18.9711 20.946 18.3461 20.5994C17.7239 20.25 17.2324 19.7415 16.8716 19.0739C16.5108 18.4062 16.3304 17.5937 16.3304 16.6364C16.3304 15.6761 16.5137 14.8622 16.8801 14.1946C17.2466 13.527 17.7424 13.0199 18.3674 12.6733C18.9924 12.3267 19.6926 12.1534 20.4682 12.1534C20.9966 12.1534 21.4853 12.2273 21.9341 12.375C22.383 12.5199 22.7779 12.733 23.1188 13.0142C23.4597 13.2926 23.7367 13.6349 23.9498 14.0412C24.1628 14.4474 24.2949 14.9119 24.3461 15.4347ZM32.7704 14.8892C32.742 14.5767 32.6156 14.3338 32.3912 14.1605C32.1696 13.9844 31.8528 13.8963 31.4409 13.8963C31.1681 13.8963 30.9409 13.9318 30.7591 14.0028C30.5772 14.0739 30.4409 14.1719 30.35 14.2969C30.2591 14.419 30.2122 14.5597 30.2093 14.7188C30.2037 14.8494 30.2292 14.9645 30.286 15.0639C30.3457 15.1634 30.4309 15.2514 30.5417 15.3281C30.6554 15.402 30.7917 15.4673 30.9508 15.5241C31.1099 15.581 31.2889 15.6307 31.4877 15.6733L32.2377 15.8438C32.6696 15.9375 33.0502 16.0625 33.3798 16.2188C33.7122 16.375 33.9906 16.5611 34.215 16.777C34.4423 16.9929 34.6142 17.2415 34.7306 17.5227C34.8471 17.804 34.9068 18.1193 34.9096 18.4688C34.9068 19.0199 34.7676 19.4929 34.492 19.8878C34.2164 20.2827 33.8201 20.5852 33.3031 20.7955C32.7889 21.0057 32.1681 21.1108 31.4409 21.1108C30.7108 21.1108 30.0744 21.0014 29.5318 20.7827C28.9892 20.5639 28.5673 20.2315 28.2662 19.7855C27.965 19.3395 27.8102 18.7756 27.8017 18.0938H29.8216C29.8386 18.375 29.9139 18.6094 30.0474 18.7969C30.1809 18.9844 30.3642 19.1264 30.5971 19.223C30.8329 19.3196 31.1056 19.3679 31.4153 19.3679C31.6994 19.3679 31.9409 19.3295 32.1397 19.2528C32.3414 19.1761 32.4963 19.0696 32.6042 18.9332C32.7122 18.7969 32.7676 18.6406 32.7704 18.4645C32.7676 18.2997 32.7164 18.1591 32.617 18.0426C32.5176 17.9233 32.3642 17.821 32.1568 17.7358C31.9522 17.6477 31.6909 17.5668 31.3727 17.4929L30.4608 17.2798C29.7051 17.1065 29.1099 16.8267 28.6752 16.4403C28.2406 16.0511 28.0247 15.5256 28.0275 14.8636C28.0247 14.3239 28.1696 13.8509 28.4622 13.4446C28.7548 13.0384 29.1596 12.7216 29.6767 12.4943C30.1937 12.267 30.7832 12.1534 31.4451 12.1534C32.1213 12.1534 32.7079 12.2685 33.2051 12.4986C33.7051 12.7259 34.0929 13.0455 34.3684 13.4574C34.644 13.8693 34.7846 14.3466 34.7903 14.8892H32.7704ZM43.1923 14.8892C43.1639 14.5767 43.0375 14.3338 42.813 14.1605C42.5914 13.9844 42.2747 13.8963 41.8627 13.8963C41.59 13.8963 41.3627 13.9318 41.1809 14.0028C40.9991 14.0739 40.8627 14.1719 40.7718 14.2969C40.6809 14.419 40.6341 14.5597 40.6312 14.7188C40.6255 14.8494 40.6511 14.9645 40.7079 15.0639C40.7676 15.1634 40.8528 15.2514 40.9636 15.3281C41.0772 15.402 41.2136 15.4673 41.3727 15.5241C41.5318 15.581 41.7108 15.6307 41.9096 15.6733L42.6596 15.8438C43.0914 15.9375 43.4721 16.0625 43.8017 16.2188C44.1341 16.375 44.4125 16.5611 44.6369 16.777C44.8642 16.9929 45.036 17.2415 45.1525 17.5227C45.269 17.804 45.3287 18.1193 45.3315 18.4688C45.3287 19.0199 45.1895 19.4929 44.9139 19.8878C44.6383 20.2827 44.242 20.5852 43.725 20.7955C43.2108 21.0057 42.59 21.1108 41.8627 21.1108C41.1326 21.1108 40.4963 21.0014 39.9537 20.7827C39.411 20.5639 38.9892 20.2315 38.688 19.7855C38.3869 19.3395 38.2321 18.7756 38.2235 18.0938H40.2434C40.2605 18.375 40.3358 18.6094 40.4693 18.7969C40.6028 18.9844 40.786 19.1264 41.019 19.223C41.2548 19.3196 41.5275 19.3679 41.8372 19.3679C42.1213 19.3679 42.3627 19.3295 42.5616 19.2528C42.7633 19.1761 42.9181 19.0696 43.0261 18.9332C43.1341 18.7969 43.1895 18.6406 43.1923 18.4645C43.1895 18.2997 43.1383 18.1591 43.0389 18.0426C42.9395 17.9233 42.786 17.821 42.5787 17.7358C42.3741 17.6477 42.1127 17.5668 41.7946 17.4929L40.8826 17.2798C40.127 17.1065 39.5318 16.8267 39.0971 16.4403C38.6625 16.0511 38.4466 15.5256 38.4494 14.8636C38.4466 14.3239 38.5914 13.8509 38.8841 13.4446C39.1767 13.0384 39.5815 12.7216 40.0985 12.4943C40.6156 12.267 41.2051 12.1534 41.867 12.1534C42.5431 12.1534 43.1298 12.2685 43.627 12.4986C44.127 12.7259 44.5147 13.0455 44.7903 13.4574C45.0659 13.8693 45.2065 14.3466 45.2122 14.8892H43.1923Z" fill="#2D3436"/>
</svg>
