<svg width="64" height="32" viewBox="0 0 64 32" fill="none" xmlns="http://www.w3.org/2000/svg">
<rect x="0.5" y="0.5" width="63" height="31" rx="15.5" stroke="#2D3436"/>
<path d="M10.1586 21V12.2727H12.2679V15.7756H15.7069V12.2727H17.812V21H15.7069V17.4929H12.2679V21H10.1586ZM21.3496 13.9858V12.2727H28.726V13.9858H26.0797V21H24.0002V13.9858H21.3496ZM32.2562 12.2727H34.8684L37.0843 17.6761H37.1866L39.4025 12.2727H42.0147V21H39.9608V15.6392H39.8883L37.7917 20.9446H36.4792L34.3826 15.6094H34.3102V21H32.2562V12.2727ZM45.8304 21V12.2727H47.9398V19.2869H51.5705V21H45.8304Z" fill="#2D3436"/>
</svg>
