<svg width="64" height="32" viewBox="0 0 64 32" fill="none" xmlns="http://www.w3.org/2000/svg">
<rect x="0.5" y="0.5" width="63" height="31" rx="15.5" stroke="#2D3436"/>
<path d="M16.0067 12.2727H18.0863V18.3068C18.0835 18.8722 17.9485 19.3665 17.6815 19.7898C17.4144 20.2102 17.0451 20.5369 16.5735 20.7699C16.1048 21.0028 15.5621 21.1193 14.9457 21.1193C14.4002 21.1193 13.9045 21.0241 13.4585 20.8338C13.0153 20.6435 12.6616 20.348 12.3974 19.9474C12.136 19.5469 12.0067 19.0341 12.0096 18.4091H14.1104C14.119 18.6335 14.1616 18.8253 14.2383 18.9844C14.3178 19.1406 14.4272 19.2585 14.5664 19.3381C14.7056 19.4176 14.8718 19.4574 15.065 19.4574C15.2667 19.4574 15.4371 19.4148 15.5763 19.3295C15.7156 19.2415 15.8207 19.1122 15.8917 18.9418C15.9656 18.7713 16.0039 18.5597 16.0067 18.3068V12.2727ZM21.9105 21V12.2727H27.9957V13.9858H24.0199V15.7756H27.6847V17.4929H24.0199V19.2869H27.9957V21H21.9105ZM36.5341 14.8892C36.5057 14.5767 36.3793 14.3338 36.1548 14.1605C35.9332 13.9844 35.6165 13.8963 35.2045 13.8963C34.9318 13.8963 34.7045 13.9318 34.5227 14.0028C34.3409 14.0739 34.2045 14.1719 34.1136 14.2969C34.0227 14.419 33.9759 14.5597 33.973 14.7188C33.9673 14.8494 33.9929 14.9645 34.0497 15.0639C34.1094 15.1634 34.1946 15.2514 34.3054 15.3281C34.419 15.402 34.5554 15.4673 34.7145 15.5241C34.8736 15.581 35.0526 15.6307 35.2514 15.6733L36.0014 15.8438C36.4332 15.9375 36.8139 16.0625 37.1435 16.2188C37.4759 16.375 37.7543 16.5611 37.9787 16.777C38.206 16.9929 38.3778 17.2415 38.4943 17.5227C38.6108 17.804 38.6705 18.1193 38.6733 18.4688C38.6705 19.0199 38.5313 19.4929 38.2557 19.8878C37.9801 20.2827 37.5838 20.5852 37.0668 20.7955C36.5526 21.0057 35.9318 21.1108 35.2045 21.1108C34.4744 21.1108 33.8381 21.0014 33.2955 20.7827C32.7528 20.5639 32.331 20.2315 32.0298 19.7855C31.7287 19.3395 31.5739 18.7756 31.5653 18.0938H33.5852C33.6023 18.375 33.6776 18.6094 33.8111 18.7969C33.9446 18.9844 34.1278 19.1264 34.3608 19.223C34.5966 19.3196 34.8693 19.3679 35.179 19.3679C35.4631 19.3679 35.7045 19.3295 35.9034 19.2528C36.1051 19.1761 36.2599 19.0696 36.3679 18.9332C36.4759 18.7969 36.5313 18.6406 36.5341 18.4645C36.5313 18.2997 36.4801 18.1591 36.3807 18.0426C36.2813 17.9233 36.1278 17.821 35.9205 17.7358C35.7159 17.6477 35.4545 17.5668 35.1364 17.4929L34.2244 17.2798C33.4688 17.1065 32.8736 16.8267 32.4389 16.4403C32.0043 16.0511 31.7884 15.5256 31.7912 14.8636C31.7884 14.3239 31.9332 13.8509 32.2259 13.4446C32.5185 13.0384 32.9233 12.7216 33.4403 12.4943C33.9574 12.267 34.5469 12.1534 35.2088 12.1534C35.8849 12.1534 36.4716 12.2685 36.9688 12.4986C37.4688 12.7259 37.8565 13.0455 38.1321 13.4574C38.4077 13.8693 38.5483 14.3466 38.554 14.8892H36.5341ZM41.9531 13.9858V12.2727H49.3295V13.9858H46.6832V21H44.6037V13.9858H41.9531Z" fill="#2D3436"/>
</svg>
