<svg width="64" height="32" viewBox="0 0 64 32" fill="none" xmlns="http://www.w3.org/2000/svg">
<rect x="0.5" y="0.5" width="63" height="31" rx="15.5" stroke="#2D3436"/>
<path d="M26.2704 12.2727H28.35V18.3068C28.3471 18.8722 28.2122 19.3665 27.9451 19.7898C27.6781 20.2102 27.3088 20.5369 26.8372 20.7699C26.3684 21.0028 25.8258 21.1193 25.2093 21.1193C24.6639 21.1193 24.1681 21.0241 23.7221 20.8338C23.2789 20.6435 22.9252 20.348 22.661 19.9474C22.3997 19.5469 22.2704 19.0341 22.2733 18.4091H24.3741C24.3826 18.6335 24.4252 18.8253 24.502 18.9844C24.5815 19.1406 24.6909 19.2585 24.8301 19.3381C24.9693 19.4176 25.1355 19.4574 25.3287 19.4574C25.5304 19.4574 25.7008 19.4148 25.84 19.3295C25.9792 19.2415 26.0843 19.1122 26.1554 18.9418C26.2292 18.7713 26.2676 18.5597 26.2704 18.3068V12.2727ZM36.8915 14.8892C36.8631 14.5767 36.7367 14.3338 36.5123 14.1605C36.2907 13.9844 35.9739 13.8963 35.562 13.8963C35.2892 13.8963 35.062 13.9318 34.8801 14.0028C34.6983 14.0739 34.562 14.1719 34.4711 14.2969C34.3801 14.419 34.3333 14.5597 34.3304 14.7188C34.3248 14.8494 34.3503 14.9645 34.4071 15.0639C34.4668 15.1634 34.552 15.2514 34.6628 15.3281C34.7765 15.402 34.9128 15.4673 35.0719 15.5241C35.231 15.581 35.41 15.6307 35.6088 15.6733L36.3588 15.8438C36.7907 15.9375 37.1713 16.0625 37.5009 16.2188C37.8333 16.375 38.1117 16.5611 38.3361 16.777C38.5634 16.9929 38.7353 17.2415 38.8517 17.5227C38.9682 17.804 39.0279 18.1193 39.0307 18.4688C39.0279 19.0199 38.8887 19.4929 38.6131 19.8878C38.3375 20.2827 37.9412 20.5852 37.4242 20.7955C36.91 21.0057 36.2892 21.1108 35.562 21.1108C34.8319 21.1108 34.1955 21.0014 33.6529 20.7827C33.1103 20.5639 32.6884 20.2315 32.3873 19.7855C32.0861 19.3395 31.9313 18.7756 31.9228 18.0938H33.9426C33.9597 18.375 34.035 18.6094 34.1685 18.7969C34.302 18.9844 34.4853 19.1264 34.7182 19.223C34.954 19.3196 35.2267 19.3679 35.5364 19.3679C35.8205 19.3679 36.062 19.3295 36.2608 19.2528C36.4625 19.1761 36.6174 19.0696 36.7253 18.9332C36.8333 18.7969 36.8887 18.6406 36.8915 18.4645C36.8887 18.2997 36.8375 18.1591 36.7381 18.0426C36.6387 17.9233 36.4853 17.821 36.2779 17.7358C36.0733 17.6477 35.812 17.5668 35.4938 17.4929L34.5819 17.2798C33.8262 17.1065 33.231 16.8267 32.7963 16.4403C32.3617 16.0511 32.1458 15.5256 32.1486 14.8636C32.1458 14.3239 32.2907 13.8509 32.5833 13.4446C32.8759 13.0384 33.2807 12.7216 33.7978 12.4943C34.3148 12.267 34.9043 12.1534 35.5662 12.1534C36.2424 12.1534 36.829 12.2685 37.3262 12.4986C37.8262 12.7259 38.214 13.0455 38.4895 13.4574C38.7651 13.8693 38.9057 14.3466 38.9114 14.8892H36.8915Z" fill="#2D3436"/>
</svg>
