<svg width="204" height="45" viewBox="0 0 204 45" fill="none" xmlns="http://www.w3.org/2000/svg">
<g id="logo">
<path id="Fill 1" fill-rule="evenodd" clip-rule="evenodd" d="M0 11.8234V44.7937H7.08607V24.4457L15.832 37.7271H19.946L26.4252 27.9186L27.7873 25.8578L24.1258 19.5385L22.7638 21.6049L17.9109 28.9679L6.56773 11.8234H0Z" fill="#2C3144"/>
<g id="Group 19">
<path id="Fill 2" fill-rule="evenodd" clip-rule="evenodd" d="M93.8363 17.9769H88.5556V38.5598H93.8363C100.39 38.5598 103.926 35.0662 103.926 28.268C103.926 21.4698 100.39 17.9769 93.8363 17.9769ZM93.8366 11.7451C105.577 11.7451 111.14 18.6847 111.14 28.2681C111.14 37.8515 105.577 44.791 93.8366 44.791H81.4834V11.7451H93.8366Z" fill="#2C3144"/>
<path id="Fill 4" fill-rule="evenodd" clip-rule="evenodd" d="M127.203 11.7451C130.965 11.7451 134.773 12.6535 137.494 14.1966V20.5512C134.819 18.6449 131.237 17.6919 127.701 17.7373C124.256 17.7827 122.533 18.7356 122.533 20.6878C122.533 26.1802 139.897 24.1372 139.897 35.4398C139.897 42.5669 134.184 44.791 127.52 44.791C123.122 44.791 119.041 43.7469 115.778 41.9314V35.4398C119.405 37.8459 123.394 38.7993 127.021 38.7993C130.693 38.7993 132.96 38.0279 132.96 35.7576C132.96 29.8116 115.597 32.0357 115.597 20.7786C115.597 14.6502 120.946 11.7451 127.203 11.7451Z" fill="#2C3144"/>
<path id="Fill 6" fill-rule="evenodd" clip-rule="evenodd" d="M168.486 11.7451V17.977H152.314V25.011H167.072V31.1951H152.314V38.5595H168.769V44.791H145.242V11.7451H168.486Z" fill="#2C3144"/>
<path id="Fill 8" fill-rule="evenodd" clip-rule="evenodd" d="M174.486 44.791V11.7451H181.134L196.505 33.3196C196.411 31.9505 196.364 30.2983 196.364 28.7874V11.7451H203.436V44.791H196.788L181.417 23.2165C181.511 24.586 181.558 26.2379 181.558 27.7488V44.791H174.486Z" fill="#2C3144"/>
<path id="Fill 10" fill-rule="evenodd" clip-rule="evenodd" d="M60.582 17.806C60.6206 17.1947 60.4774 16.5722 60.164 16.0271L57.694 11.7477H55.1469L58.2497 17.1286C58.3706 17.338 58.4091 17.5802 58.3598 17.806H60.582Z" fill="#2C3144"/>
<path id="Fill 12" fill-rule="evenodd" clip-rule="evenodd" d="M76.7755 29.7688L68.9755 43.2903C68.4418 44.221 67.4518 44.7936 66.3847 44.7936H50.7844C49.7172 44.7936 48.7269 44.221 48.1935 43.2903L43.5563 35.2492L42.28 33.0406L40.3931 29.7688C39.8598 28.8381 39.8598 27.698 40.3931 26.7673L48.1935 13.2458C48.7269 12.3152 49.7172 11.7477 50.7844 11.7477H55.1463L58.249 17.129C58.37 17.338 58.4085 17.5806 58.3588 17.806H52.5499L46.5155 28.2706L49.2551 33.0183L50.3771 34.9681L52.5499 38.7353H64.6188L70.6532 28.2706L64.6188 17.806H60.5814C60.6195 17.1947 60.4768 16.5726 60.1629 16.0275L57.6934 11.7477H66.3847C67.4518 11.7477 68.4418 12.3152 68.9755 13.2458L76.7755 26.7673C77.3093 27.698 77.3093 28.8381 76.7755 29.7688Z" fill="#2C3144"/>
<g id="Group 16">
<mask id="mask0_1_424" style="mask-type:alpha" maskUnits="userSpaceOnUse" x="20" y="0" width="41" height="36">
<path id="Clip 15" fill-rule="evenodd" clip-rule="evenodd" d="M20.9252 0H60.5879V35.2491H20.9252V0Z" fill="white"/>
</mask>
<g mask="url(#mask0_1_424)">
<path id="Fill 14" fill-rule="evenodd" clip-rule="evenodd" d="M35.6748 33.0404V35.249H43.5575L42.2811 33.0404H35.6748ZM60.1638 16.0273L57.6938 11.7476L51.8408 1.59707C51.2688 0.611054 50.218 -0.000228882 49.0741 -0.000228882H32.4397C31.2954 -0.000228882 30.245 0.611054 29.6726 1.59707L21.35 16.0273C20.7837 17.013 20.7837 18.2359 21.35 19.2215L22.692 21.5512L26.3448 27.8799L28.6055 31.8012V27.3841L27.7034 25.8142L24.051 19.4804L23.2643 18.12C23.0881 17.8118 23.0881 17.4371 23.2643 17.1288L31.5814 2.70415C31.7576 2.39552 32.0877 2.20836 32.4397 2.20836H49.0741C49.4261 2.20836 49.7562 2.39552 49.932 2.70415L55.1467 11.7476L58.2495 17.1288C58.3704 17.3379 58.409 17.5804 58.3596 17.8062C58.3429 17.9161 58.3044 18.0209 58.2495 18.12L49.932 32.5447C49.7893 32.798 49.5363 32.9744 49.2555 33.0182L50.3779 34.968C50.9829 34.698 51.4999 34.2412 51.8408 33.6518L60.1638 19.2215C60.4167 18.7811 60.5543 18.2965 60.5818 17.8062C60.6204 17.1946 60.4772 16.5725 60.1638 16.0273Z" fill="#F17900"/>
</g>
</g>
<path id="Fill 17" fill-rule="evenodd" clip-rule="evenodd" d="M35.6742 11.7477V44.7936H28.6057V24.4429L27.7036 25.8144L24.0512 19.4805L29.1227 11.7477H35.6742Z" fill="#2C3144"/>
</g>
</g>
</svg>
