<svg width="64" height="32" viewBox="0 0 64 32" fill="none" xmlns="http://www.w3.org/2000/svg">
<rect x="0.5" y="0.5" width="63" height="31" rx="15.5" stroke="#2D3436"/>
<path d="M17.8908 12.2727V21H16.101L12.628 15.9631H12.5726V21H10.4632V12.2727H12.2786L15.7132 17.3011H15.7857V12.2727H17.8908ZM29.9544 16.6364C29.9544 17.5966 29.7697 18.4105 29.4004 19.0781C29.0311 19.7457 28.5311 20.2528 27.9004 20.5994C27.2725 20.946 26.568 21.1193 25.7868 21.1193C25.0027 21.1193 24.2967 20.9446 23.6689 20.5952C23.041 20.2457 22.5424 19.7386 22.1731 19.0739C21.8066 18.4062 21.6234 17.5937 21.6234 16.6364C21.6234 15.6761 21.8066 14.8622 22.1731 14.1946C22.5424 13.527 23.041 13.0199 23.6689 12.6733C24.2967 12.3267 25.0027 12.1534 25.7868 12.1534C26.568 12.1534 27.2725 12.3267 27.9004 12.6733C28.5311 13.0199 29.0311 13.527 29.4004 14.1946C29.7697 14.8622 29.9544 15.6761 29.9544 16.6364ZM27.7981 16.6364C27.7981 16.0682 27.7172 15.5881 27.5552 15.196C27.3961 14.804 27.166 14.5071 26.8649 14.3054C26.5666 14.1037 26.2072 14.0028 25.7868 14.0028C25.3691 14.0028 25.0098 14.1037 24.7086 14.3054C24.4075 14.5071 24.176 14.804 24.014 15.196C23.8549 15.5881 23.7754 16.0682 23.7754 16.6364C23.7754 17.2045 23.8549 17.6847 24.014 18.0767C24.176 18.4687 24.4075 18.7656 24.7086 18.9673C25.0098 19.169 25.3691 19.2699 25.7868 19.2699C26.2072 19.2699 26.5666 19.169 26.8649 18.9673C27.166 18.7656 27.3961 18.4687 27.5552 18.0767C27.7172 17.6847 27.7981 17.2045 27.7981 16.6364ZM36.9118 21H33.6859V12.2727H36.9075C37.7967 12.2727 38.5623 12.4474 39.2044 12.7969C39.8493 13.1435 40.3464 13.6435 40.6958 14.2969C41.0453 14.9474 41.22 15.7259 41.22 16.6321C41.22 17.5412 41.0453 18.3224 40.6958 18.9759C40.3493 19.6293 39.8535 20.1307 39.2086 20.4801C38.5637 20.8267 37.7981 21 36.9118 21ZM35.7953 19.2017H36.8308C37.3194 19.2017 37.7328 19.1193 38.0708 18.9545C38.4118 18.7869 38.6689 18.5156 38.8422 18.1406C39.0183 17.7628 39.1064 17.2599 39.1064 16.6321C39.1064 16.0043 39.0183 15.5043 38.8422 15.1321C38.666 14.7571 38.4061 14.4872 38.0623 14.3224C37.7214 14.1548 37.301 14.071 36.801 14.071H35.7953V19.2017ZM44.9515 21V12.2727H51.0368V13.9858H47.0609V15.7756H50.7257V17.4929H47.0609V19.2869H51.0368V21H44.9515Z" fill="#2D3436"/>
</svg>
