<svg width="171" height="48" viewBox="0 0 171 48" fill="none" xmlns="http://www.w3.org/2000/svg">
<path d="M17 36L-2.96137e-06 27L-1.2547e-06 9L17 6.25907e-06L34 9.00001L34 27L17 36Z" fill="#2C3144"/>
<path d="M43.4258 10.8906V18H41.9609V12.0381H39.1045V18H37.6396V10.8906H43.4258ZM50.7449 14.2793V14.6162C50.7449 15.1566 50.6717 15.6416 50.5252 16.0713C50.3787 16.501 50.172 16.8672 49.9051 17.1699C49.6382 17.4694 49.3191 17.6989 48.948 17.8584C48.5802 18.0179 48.1717 18.0977 47.7225 18.0977C47.2765 18.0977 46.868 18.0179 46.4969 17.8584C46.129 17.6989 45.81 17.4694 45.5398 17.1699C45.2697 16.8672 45.0597 16.501 44.91 16.0713C44.7635 15.6416 44.6902 15.1566 44.6902 14.6162V14.2793C44.6902 13.7357 44.7635 13.2507 44.91 12.8242C45.0564 12.3945 45.2632 12.0283 45.5301 11.7256C45.8003 11.4229 46.1193 11.1917 46.4871 11.0322C46.8582 10.8727 47.2667 10.793 47.7127 10.793C48.1619 10.793 48.5704 10.8727 48.9383 11.0322C49.3094 11.1917 49.6284 11.4229 49.8953 11.7256C50.1655 12.0283 50.3738 12.3945 50.5203 12.8242C50.6701 13.2507 50.7449 13.7357 50.7449 14.2793ZM49.2654 14.6162V14.2695C49.2654 13.8919 49.2312 13.5599 49.1629 13.2734C49.0945 12.987 48.9936 12.7461 48.8602 12.5508C48.7267 12.3555 48.5639 12.209 48.3719 12.1113C48.1798 12.0104 47.9601 11.96 47.7127 11.96C47.4653 11.96 47.2456 12.0104 47.0535 12.1113C46.8647 12.209 46.7036 12.3555 46.5701 12.5508C46.4399 12.7461 46.3406 12.987 46.2723 13.2734C46.2039 13.5599 46.1697 13.8919 46.1697 14.2695V14.6162C46.1697 14.9906 46.2039 15.3226 46.2723 15.6123C46.3406 15.8988 46.4415 16.1413 46.575 16.3398C46.7085 16.5352 46.8712 16.6833 47.0633 16.7842C47.2553 16.8851 47.4751 16.9355 47.7225 16.9355C47.9699 16.9355 48.1896 16.8851 48.3816 16.7842C48.5737 16.6833 48.7348 16.5352 48.865 16.3398C48.9952 16.1413 49.0945 15.8988 49.1629 15.6123C49.2312 15.3226 49.2654 14.9906 49.2654 14.6162ZM56.5846 10.8906V12.0381H53.0494V10.8906H56.5846ZM57.6295 10.8906V18H56.1646V10.8906H57.6295ZM52.8639 10.8906H54.3238L54.1432 14.46C54.1171 14.9938 54.0667 15.4577 53.9918 15.8516C53.9202 16.2454 53.8225 16.5807 53.6988 16.8574C53.5751 17.1309 53.4221 17.3522 53.2398 17.5215C53.0608 17.6875 52.8492 17.8096 52.6051 17.8877C52.3609 17.9626 52.0826 18 51.7701 18H51.4088V16.8574L51.5943 16.8428C51.7538 16.8265 51.8938 16.7842 52.0143 16.7158C52.1347 16.6475 52.2372 16.5449 52.3219 16.4082C52.4098 16.2715 52.4814 16.0973 52.5367 15.8857C52.5953 15.6709 52.6409 15.4089 52.6734 15.0996C52.7092 14.7904 52.7337 14.429 52.7467 14.0156L52.8639 10.8906ZM64.9438 14.2793V14.6162C64.9438 15.1566 64.8705 15.6416 64.724 16.0713C64.5775 16.501 64.3708 16.8672 64.1039 17.1699C63.837 17.4694 63.518 17.6989 63.1469 17.8584C62.779 18.0179 62.3705 18.0977 61.9213 18.0977C61.4753 18.0977 61.0668 18.0179 60.6957 17.8584C60.3279 17.6989 60.0089 17.4694 59.7387 17.1699C59.4685 16.8672 59.2585 16.501 59.1088 16.0713C58.9623 15.6416 58.8891 15.1566 58.8891 14.6162V14.2793C58.8891 13.7357 58.9623 13.2507 59.1088 12.8242C59.2553 12.3945 59.462 12.0283 59.7289 11.7256C59.9991 11.4229 60.3181 11.1917 60.6859 11.0322C61.057 10.8727 61.4656 10.793 61.9115 10.793C62.3607 10.793 62.7693 10.8727 63.1371 11.0322C63.5082 11.1917 63.8272 11.4229 64.0941 11.7256C64.3643 12.0283 64.5727 12.3945 64.7191 12.8242C64.8689 13.2507 64.9438 13.7357 64.9438 14.2793ZM63.4643 14.6162V14.2695C63.4643 13.8919 63.4301 13.5599 63.3617 13.2734C63.2934 12.987 63.1924 12.7461 63.059 12.5508C62.9255 12.3555 62.7628 12.209 62.5707 12.1113C62.3786 12.0104 62.1589 11.96 61.9115 11.96C61.6641 11.96 61.4444 12.0104 61.2523 12.1113C61.0635 12.209 60.9024 12.3555 60.7689 12.5508C60.6387 12.7461 60.5395 12.987 60.4711 13.2734C60.4027 13.5599 60.3686 13.8919 60.3686 14.2695V14.6162C60.3686 14.9906 60.4027 15.3226 60.4711 15.6123C60.5395 15.8988 60.6404 16.1413 60.7738 16.3398C60.9073 16.5352 61.0701 16.6833 61.2621 16.7842C61.4542 16.8851 61.6739 16.9355 61.9213 16.9355C62.1687 16.9355 62.3884 16.8851 62.5805 16.7842C62.7725 16.6833 62.9337 16.5352 63.0639 16.3398C63.1941 16.1413 63.2934 15.8988 63.3617 15.6123C63.4301 15.3226 63.4643 14.9906 63.4643 14.6162ZM72.8879 16.8623L72.7951 19.7139H71.4279V18H70.8469V16.8623H72.8879ZM66.1252 18V10.8906H67.5852V16.8574H70.4465V10.8906H71.9162V18H66.1252ZM75.4561 10.8906V18H73.9912V10.8906H75.4561ZM79.6455 10.8906L76.9209 15.0654H75.1289L74.9434 13.7617H76.1396L77.8682 10.8906H79.6455ZM78.1367 18L76.1445 14.8213L77.1602 13.7764L79.875 18H78.1367ZM82.0623 15.6953L84.9188 10.8906H86.3836V18H84.9188V13.1953L82.0623 18H80.5975V10.8906H82.0623V15.6953ZM89.2643 15.6953L92.1207 10.8906H93.5855V18H92.1207V13.1953L89.2643 18H87.7994V10.8906H89.2643V15.6953ZM91.4029 9.02539H92.4039C92.4039 9.30534 92.3339 9.55436 92.1939 9.77246C92.0572 9.98731 91.8619 10.1566 91.608 10.2803C91.3541 10.4007 91.0546 10.4609 90.7096 10.4609C90.1855 10.4609 89.7704 10.3275 89.4645 10.0605C89.1617 9.79362 89.0104 9.44857 89.0104 9.02539H90.0064C90.0064 9.19466 90.0585 9.34603 90.1627 9.47949C90.2701 9.61296 90.4524 9.67969 90.7096 9.67969C90.9635 9.67969 91.1425 9.61296 91.2467 9.47949C91.3508 9.34603 91.4029 9.19466 91.4029 9.02539ZM42.3027 23.8906V25.0381H39.0996V31H37.6396V23.8906H42.3027ZM48.9187 27.2793V27.6162C48.9187 28.1566 48.8455 28.6416 48.699 29.0713C48.5525 29.501 48.3458 29.8672 48.0789 30.1699C47.812 30.4694 47.493 30.6989 47.1219 30.8584C46.754 31.0179 46.3455 31.0977 45.8963 31.0977C45.4503 31.0977 45.0418 31.0179 44.6707 30.8584C44.3029 30.6989 43.9839 30.4694 43.7137 30.1699C43.4435 29.8672 43.2335 29.501 43.0838 29.0713C42.9373 28.6416 42.8641 28.1566 42.8641 27.6162V27.2793C42.8641 26.7357 42.9373 26.2507 43.0838 25.8242C43.2303 25.3945 43.437 25.0283 43.7039 24.7256C43.9741 24.4229 44.2931 24.1917 44.6609 24.0322C45.032 23.8727 45.4406 23.793 45.8865 23.793C46.3357 23.793 46.7443 23.8727 47.1121 24.0322C47.4832 24.1917 47.8022 24.4229 48.0691 24.7256C48.3393 25.0283 48.5477 25.3945 48.6941 25.8242C48.8439 26.2507 48.9187 26.7357 48.9187 27.2793ZM47.4393 27.6162V27.2695C47.4393 26.8919 47.4051 26.5599 47.3367 26.2734C47.2684 25.987 47.1674 25.7461 47.034 25.5508C46.9005 25.3555 46.7378 25.209 46.5457 25.1113C46.3536 25.0104 46.1339 24.96 45.8865 24.96C45.6391 24.96 45.4194 25.0104 45.2273 25.1113C45.0385 25.209 44.8774 25.3555 44.7439 25.5508C44.6137 25.7461 44.5145 25.987 44.4461 26.2734C44.3777 26.5599 44.3436 26.8919 44.3436 27.2695V27.6162C44.3436 27.9906 44.3777 28.3226 44.4461 28.6123C44.5145 28.8988 44.6154 29.1413 44.7488 29.3398C44.8823 29.5352 45.0451 29.6833 45.2371 29.7842C45.4292 29.8851 45.6489 29.9355 45.8963 29.9355C46.1437 29.9355 46.3634 29.8851 46.5555 29.7842C46.7475 29.6833 46.9087 29.5352 47.0389 29.3398C47.1691 29.1413 47.2684 28.8988 47.3367 28.6123C47.4051 28.3226 47.4393 27.9906 47.4393 27.6162ZM54.2945 28.6416H55.7545C55.7252 29.1201 55.5934 29.5449 55.359 29.916C55.1279 30.2871 54.804 30.5768 54.3873 30.7852C53.9739 30.9935 53.4758 31.0977 52.8932 31.0977C52.4374 31.0977 52.0289 31.0195 51.6676 30.8633C51.3062 30.7038 50.997 30.4759 50.7398 30.1797C50.4859 29.8835 50.2923 29.5254 50.1588 29.1055C50.0253 28.6855 49.9586 28.2152 49.9586 27.6943V27.2012C49.9586 26.6803 50.027 26.21 50.1637 25.79C50.3036 25.3669 50.5022 25.0072 50.7594 24.7109C51.0198 24.4147 51.3307 24.1869 51.692 24.0273C52.0533 23.8678 52.457 23.7881 52.9029 23.7881C53.4954 23.7881 53.9951 23.8955 54.402 24.1104C54.8121 24.3252 55.1295 24.6214 55.3541 24.999C55.582 25.3766 55.7187 25.8063 55.7643 26.2881H54.2994C54.2831 26.0016 54.2262 25.7591 54.1285 25.5605C54.0309 25.3587 53.8827 25.2074 53.6842 25.1064C53.4889 25.0023 53.2285 24.9502 52.9029 24.9502C52.6588 24.9502 52.4456 24.9958 52.2633 25.0869C52.081 25.1781 51.928 25.3164 51.8043 25.502C51.6806 25.6875 51.5878 25.9219 51.526 26.2051C51.4674 26.485 51.4381 26.8138 51.4381 27.1914V27.6943C51.4381 28.0622 51.4658 28.3861 51.5211 28.666C51.5764 28.9427 51.6611 29.1771 51.775 29.3691C51.8922 29.5579 52.0419 29.7012 52.2242 29.7988C52.4098 29.8932 52.6327 29.9404 52.8932 29.9404C53.1992 29.9404 53.4514 29.8916 53.65 29.7939C53.8486 29.6963 53.9999 29.5514 54.1041 29.3594C54.2115 29.1673 54.275 28.9281 54.2945 28.6416ZM59.1479 28.4219L60.8959 23.8906H62.473L60.0365 29.623C59.9519 29.8184 59.8542 30.0055 59.7436 30.1846C59.6361 30.3604 59.5076 30.5182 59.3578 30.6582C59.2081 30.7949 59.029 30.904 58.8207 30.9854C58.6124 31.0635 58.3633 31.1025 58.0736 31.1025C58.002 31.1025 57.9141 31.1009 57.81 31.0977C57.7058 31.0944 57.6228 31.0895 57.5609 31.083L57.5512 29.9404C57.5902 29.9502 57.6521 29.9567 57.7367 29.96C57.8214 29.96 57.8832 29.96 57.9223 29.96C58.1143 29.96 58.2657 29.9323 58.3764 29.877C58.487 29.8216 58.5749 29.7435 58.64 29.6426C58.7084 29.5384 58.7686 29.4163 58.8207 29.2764L59.1479 28.4219ZM57.9906 23.8906L59.6117 27.4111L60.0658 29.0273L58.977 29.0469L56.4184 23.8906H57.9906ZM68.674 29.8574V31H63.552V29.8574H68.674ZM63.9865 29.8574V32.7432H62.6096L62.5314 29.8574H63.9865ZM69.7287 29.8574L69.6018 32.748H68.259V29.8574H69.7287ZM67.8684 23.8906V25.0381H64.4455V23.8906H67.8684ZM68.9133 23.8906V31H67.4533V23.8906H68.9133ZM64.2648 23.8906H65.7297L65.5393 26.7861C65.51 27.2647 65.4579 27.6878 65.383 28.0557C65.3114 28.4202 65.2235 28.7409 65.1193 29.0176C65.0184 29.2943 64.9061 29.5368 64.7824 29.7451C64.6587 29.9502 64.5285 30.1292 64.3918 30.2822C64.2551 30.432 64.1167 30.5654 63.9768 30.6826C63.8368 30.7966 63.7001 30.9023 63.5666 31H62.7268V29.8574H63.0539C63.1483 29.7793 63.2476 29.6719 63.3518 29.5352C63.4592 29.3984 63.5601 29.2145 63.6545 28.9834C63.7521 28.749 63.8368 28.4528 63.9084 28.0947C63.9833 27.7367 64.0386 27.3005 64.0744 26.7861L64.2648 23.8906ZM73.6543 25.1064L71.7207 31H70.1631L72.8047 23.8906H73.7959L73.6543 25.1064ZM75.2607 31L73.3223 25.1064L73.166 23.8906H74.167L76.8232 31H75.2607ZM75.1729 28.3535V29.501H71.418V28.3535H75.1729ZM80.451 28.4658H78.6395V27.3232H80.451C80.7309 27.3232 80.9588 27.2777 81.1346 27.1865C81.3104 27.0921 81.4389 26.9619 81.5203 26.7959C81.6017 26.6299 81.6424 26.4427 81.6424 26.2344C81.6424 26.0228 81.6017 25.8258 81.5203 25.6436C81.4389 25.4613 81.3104 25.3148 81.1346 25.2041C80.9588 25.0934 80.7309 25.0381 80.451 25.0381H79.1473V31H77.6824V23.8906H80.451C81.0076 23.8906 81.4845 23.9915 81.8816 24.1934C82.282 24.3919 82.588 24.667 82.7996 25.0186C83.0112 25.3701 83.117 25.7721 83.117 26.2246C83.117 26.6836 83.0112 27.0807 82.7996 27.416C82.588 27.7513 82.282 28.0101 81.8816 28.1924C81.4845 28.3747 81.0076 28.4658 80.451 28.4658ZM88.4488 28.6416H89.9088C89.8795 29.1201 89.7477 29.5449 89.5133 29.916C89.2822 30.2871 88.9583 30.5768 88.5416 30.7852C88.1282 30.9935 87.6301 31.0977 87.0475 31.0977C86.5917 31.0977 86.1832 31.0195 85.8219 30.8633C85.4605 30.7038 85.1513 30.4759 84.8941 30.1797C84.6402 29.8835 84.4466 29.5254 84.3131 29.1055C84.1796 28.6855 84.1129 28.2152 84.1129 27.6943V27.2012C84.1129 26.6803 84.1813 26.21 84.318 25.79C84.4579 25.3669 84.6565 25.0072 84.9137 24.7109C85.1741 24.4147 85.485 24.1869 85.8463 24.0273C86.2076 23.8678 86.6113 23.7881 87.0572 23.7881C87.6497 23.7881 88.1494 23.8955 88.5563 24.1104C88.9664 24.3252 89.2838 24.6214 89.5084 24.999C89.7363 25.3766 89.873 25.8063 89.9186 26.2881H88.4537C88.4374 26.0016 88.3805 25.7591 88.2828 25.5605C88.1852 25.3587 88.037 25.2074 87.8385 25.1064C87.6432 25.0023 87.3827 24.9502 87.0572 24.9502C86.8131 24.9502 86.5999 24.9958 86.4176 25.0869C86.2353 25.1781 86.0823 25.3164 85.9586 25.502C85.8349 25.6875 85.7421 25.9219 85.6803 26.2051C85.6217 26.485 85.5924 26.8138 85.5924 27.1914V27.6943C85.5924 28.0622 85.6201 28.3861 85.6754 28.666C85.7307 28.9427 85.8154 29.1771 85.9293 29.3691C86.0465 29.5579 86.1962 29.7012 86.3785 29.7988C86.5641 29.8932 86.787 29.9404 87.0475 29.9404C87.3535 29.9404 87.6057 29.8916 87.8043 29.7939C88.0029 29.6963 88.1542 29.5514 88.2584 29.3594C88.3658 29.1673 88.4293 28.9281 88.4488 28.6416ZM94.1029 23.8906V31H92.643V23.8906H94.1029ZM96.2904 23.8906V25.0381H90.4896V23.8906H96.2904ZM100.109 27.8799H98.2824L98.2727 26.874H99.8059C100.076 26.874 100.297 26.8398 100.47 26.7715C100.642 26.6999 100.771 26.5973 100.856 26.4639C100.944 26.3272 100.987 26.1611 100.987 25.9658C100.987 25.7445 100.945 25.5654 100.861 25.4287C100.779 25.292 100.651 25.1927 100.475 25.1309C100.302 25.069 100.079 25.0381 99.8059 25.0381H98.7902V31H97.3254V23.8906H99.8059C100.219 23.8906 100.589 23.9297 100.914 24.0078C101.243 24.0859 101.521 24.2048 101.749 24.3643C101.977 24.5238 102.151 24.7256 102.272 24.9697C102.392 25.2106 102.452 25.4971 102.452 25.8291C102.452 26.1221 102.386 26.3923 102.252 26.6397C102.122 26.887 101.915 27.0889 101.632 27.2451C101.352 27.4014 100.986 27.4876 100.533 27.5039L100.109 27.8799ZM100.045 31H97.882L98.4533 29.8574H100.045C100.302 29.8574 100.512 29.8167 100.675 29.7354C100.838 29.6507 100.958 29.5368 101.036 29.3936C101.114 29.2503 101.154 29.0859 101.154 28.9004C101.154 28.6921 101.118 28.5114 101.046 28.3584C100.978 28.2054 100.867 28.0882 100.714 28.0068C100.561 27.9222 100.359 27.8799 100.109 27.8799H98.6975L98.7072 26.874H100.465L100.802 27.2695C101.235 27.263 101.583 27.3395 101.847 27.499C102.114 27.6553 102.307 27.8587 102.428 28.1094C102.552 28.36 102.613 28.6286 102.613 28.915C102.613 29.3708 102.514 29.7549 102.316 30.0674C102.117 30.3766 101.826 30.6094 101.442 30.7656C101.061 30.9219 100.595 31 100.045 31ZM108.683 29.8574V31H104.898V29.8574H108.683ZM105.377 23.8906V31H103.912V23.8906H105.377ZM108.189 26.7861V27.8994H104.898V26.7861H108.189ZM108.678 23.8906V25.0381H104.898V23.8906H108.678ZM114.478 26.7861V27.9287H110.767V26.7861H114.478ZM111.202 23.8906V31H109.737V23.8906H111.202ZM115.523 23.8906V31H114.063V23.8906H115.523ZM121.739 26.7861V27.9287H118.028V26.7861H121.739ZM118.463 23.8906V31H116.998V23.8906H118.463ZM122.784 23.8906V31H121.324V23.8906H122.784ZM125.225 26.4834H126.885C127.442 26.4834 127.922 26.5762 128.326 26.7617C128.732 26.9473 129.043 27.2077 129.258 27.543C129.476 27.8783 129.585 28.2689 129.585 28.7148C129.585 29.0534 129.524 29.3626 129.4 29.6426C129.276 29.9193 129.097 30.1602 128.863 30.3652C128.628 30.5671 128.345 30.7233 128.013 30.834C127.681 30.9447 127.305 31 126.885 31H124.268V23.8906H125.738V29.8574H126.885C127.162 29.8574 127.391 29.8053 127.574 29.7012C127.759 29.597 127.898 29.4587 127.989 29.2861C128.08 29.1104 128.125 28.9167 128.125 28.7051C128.125 28.5033 128.08 28.321 127.989 28.1582C127.898 27.9922 127.759 27.862 127.574 27.7676C127.391 27.6732 127.162 27.626 126.885 27.626H125.225V26.4834ZM131.675 23.8906V31H130.215V23.8906H131.675ZM134.561 28.6953L137.417 23.8906H138.882V31H137.417V26.1953L134.561 31H133.096V23.8906H134.561V28.6953ZM136.699 22.0254H137.7C137.7 22.3053 137.63 22.5544 137.49 22.7725C137.354 22.9873 137.158 23.1566 136.904 23.2803C136.651 23.4007 136.351 23.4609 136.006 23.4609C135.482 23.4609 135.067 23.3275 134.761 23.0605C134.458 22.7936 134.307 22.4486 134.307 22.0254H135.303C135.303 22.1947 135.355 22.346 135.459 22.4795C135.567 22.613 135.749 22.6797 136.006 22.6797C136.26 22.6797 136.439 22.613 136.543 22.4795C136.647 22.346 136.699 22.1947 136.699 22.0254ZM39.8662 41.4219L41.6143 36.8906H43.1914L40.7549 42.623C40.6702 42.8184 40.5726 43.0055 40.4619 43.1846C40.3545 43.3604 40.2259 43.5182 40.0762 43.6582C39.9264 43.7949 39.7474 43.904 39.5391 43.9854C39.3307 44.0635 39.0817 44.1025 38.792 44.1025C38.7204 44.1025 38.6325 44.1009 38.5283 44.0977C38.4242 44.0944 38.3411 44.0895 38.2793 44.083L38.2695 42.9404C38.3086 42.9502 38.3704 42.9567 38.4551 42.96C38.5397 42.96 38.6016 42.96 38.6406 42.96C38.8327 42.96 38.984 42.9323 39.0947 42.877C39.2054 42.8216 39.2933 42.7435 39.3584 42.6426C39.4268 42.5384 39.487 42.4163 39.5391 42.2764L39.8662 41.4219ZM38.709 36.8906L40.3301 40.4111L40.7842 42.0273L39.6953 42.0469L37.1367 36.8906H38.709ZM48.8943 39.7861V40.9287H45.1834V39.7861H48.8943ZM45.618 36.8906V44H44.1531V36.8906H45.618ZM49.9393 36.8906V44H48.4793V36.8906H49.9393ZM52.8248 41.6953L55.6812 36.8906H57.1461V44H55.6812V39.1953L52.8248 44H51.36V36.8906H52.8248V41.6953ZM61.3988 40.8799H59.5727L59.5629 39.874H61.0961C61.3663 39.874 61.5876 39.8398 61.7602 39.7715C61.9327 39.6999 62.0613 39.5973 62.1459 39.4639C62.2338 39.3272 62.2777 39.1611 62.2777 38.9658C62.2777 38.7445 62.2354 38.5654 62.1508 38.4287C62.0694 38.292 61.9408 38.1927 61.765 38.1309C61.5925 38.069 61.3695 38.0381 61.0961 38.0381H60.0805V44H58.6156V36.8906H61.0961C61.5095 36.8906 61.879 36.9297 62.2045 37.0078C62.5333 37.0859 62.8116 37.2048 63.0395 37.3643C63.2673 37.5238 63.4415 37.7256 63.5619 37.9697C63.6824 38.2106 63.7426 38.4971 63.7426 38.8291C63.7426 39.1221 63.6758 39.3923 63.5424 39.6397C63.4122 39.887 63.2055 40.0889 62.9223 40.2451C62.6423 40.4014 62.2761 40.4876 61.8236 40.5039L61.3988 40.8799ZM61.3354 44H59.1723L59.7436 42.8574H61.3354C61.5925 42.8574 61.8025 42.8167 61.9652 42.7354C62.128 42.6507 62.2484 42.5368 62.3266 42.3936C62.4047 42.2503 62.4438 42.0859 62.4438 41.9004C62.4438 41.6921 62.4079 41.5114 62.3363 41.3584C62.268 41.2054 62.1573 41.0882 62.0043 41.0068C61.8513 40.9222 61.6495 40.8799 61.3988 40.8799H59.9877L59.9975 39.874H61.7553L62.0922 40.2695C62.5251 40.263 62.8734 40.3395 63.1371 40.499C63.404 40.6553 63.5977 40.8587 63.7182 41.1094C63.8419 41.36 63.9037 41.6286 63.9037 41.915C63.9037 42.3708 63.8044 42.7549 63.6059 43.0674C63.4073 43.3766 63.116 43.6094 62.7318 43.7656C62.351 43.9219 61.8855 44 61.3354 44ZM69.9729 42.8574V44H66.1887V42.8574H69.9729ZM66.6672 36.8906V44H65.2023V36.8906H66.6672ZM69.4797 39.7861V40.8994H66.1887V39.7861H69.4797ZM69.968 36.8906V38.0381H66.1887V36.8906H69.968ZM73.7959 41.4658H71.9844V40.3232H73.7959C74.0758 40.3232 74.3037 40.2777 74.4795 40.1865C74.6553 40.0921 74.7839 39.9619 74.8652 39.7959C74.9466 39.6299 74.9873 39.4427 74.9873 39.2344C74.9873 39.0228 74.9466 38.8258 74.8652 38.6436C74.7839 38.4613 74.6553 38.3148 74.4795 38.2041C74.3037 38.0934 74.0758 38.0381 73.7959 38.0381H72.4922V44H71.0273V36.8906H73.7959C74.3525 36.8906 74.8294 36.9915 75.2266 37.1934C75.627 37.3919 75.9329 37.667 76.1445 38.0186C76.3561 38.3701 76.4619 38.7721 76.4619 39.2246C76.4619 39.6836 76.3561 40.0807 76.1445 40.416C75.9329 40.7513 75.627 41.0101 75.2266 41.1924C74.8294 41.3747 74.3525 41.4658 73.7959 41.4658ZM81.7938 41.6416H83.2537C83.2244 42.1201 83.0926 42.5449 82.8582 42.916C82.6271 43.2871 82.3032 43.5768 81.8865 43.7852C81.4731 43.9935 80.9751 44.0977 80.3924 44.0977C79.9367 44.0977 79.5281 44.0195 79.1668 43.8633C78.8055 43.7038 78.4962 43.4759 78.2391 43.1797C77.9852 42.8835 77.7915 42.5254 77.658 42.1055C77.5245 41.6855 77.4578 41.2152 77.4578 40.6943V40.2012C77.4578 39.6803 77.5262 39.21 77.6629 38.79C77.8029 38.3669 78.0014 38.0072 78.2586 37.7109C78.519 37.4147 78.8299 37.1869 79.1912 37.0273C79.5525 36.8678 79.9562 36.7881 80.4021 36.7881C80.9946 36.7881 81.4943 36.8955 81.9012 37.1104C82.3113 37.3252 82.6287 37.6214 82.8533 37.999C83.0812 38.3766 83.2179 38.8063 83.2635 39.2881H81.7986C81.7824 39.0016 81.7254 38.7591 81.6277 38.5605C81.5301 38.3587 81.382 38.2074 81.1834 38.1064C80.9881 38.0023 80.7277 37.9502 80.4021 37.9502C80.158 37.9502 79.9448 37.9958 79.7625 38.0869C79.5802 38.1781 79.4272 38.3164 79.3035 38.502C79.1798 38.6875 79.087 38.9219 79.0252 39.2051C78.9666 39.485 78.9373 39.8138 78.9373 40.1914V40.6943C78.9373 41.0622 78.965 41.3861 79.0203 41.666C79.0757 41.9427 79.1603 42.1771 79.2742 42.3691C79.3914 42.5579 79.5411 42.7012 79.7234 42.7988C79.909 42.8932 80.132 42.9404 80.3924 42.9404C80.6984 42.9404 80.9507 42.8916 81.1492 42.7939C81.3478 42.6963 81.4992 42.5514 81.6033 42.3594C81.7107 42.1673 81.7742 41.9281 81.7938 41.6416ZM85.8268 41.6953L88.6832 36.8906H90.148V44H88.6832V39.1953L85.8268 44H84.3619V36.8906H85.8268V41.6953ZM94.6498 36.8906V44H93.1898V36.8906H94.6498ZM96.8373 36.8906V38.0381H91.0365V36.8906H96.8373ZM102.643 42.8574V44H98.8586V42.8574H102.643ZM99.3371 36.8906V44H97.8723V36.8906H99.3371ZM102.15 39.7861V40.8994H98.8586V39.7861H102.15ZM102.638 36.8906V38.0381H98.8586V36.8906H102.638ZM106.974 36.8906V44H105.514V36.8906H106.974ZM109.161 36.8906V38.0381H103.36V36.8906H109.161Z" fill="black"/>
</svg>
